{"glyphs":{"0":{"ha":979,"x_min":0,"x_max":0,"o":"m 60 506 b 489 -18 60 192 219 -18 b 919 506 758 -18 919 192 b 489 1035 919 821 749 1035 b 60 506 229 1035 60 821 z m 235 506 b 489 878 235 746 329 878 b 744 506 650 878 744 746 b 489 139 744 271 650 139 b 235 506 329 139 235 271 z "},"1":{"ha":553,"x_min":0,"x_max":0,"o":"m 269 856 l 269 0 l 440 0 l 440 1015 l 47 1015 l 47 856 z "},"2":{"ha":818,"x_min":0,"x_max":0,"o":"m 768 1 l 768 167 l 346 167 l 529 324 b 761 704 683 456 761 563 b 410 1033 761 910 626 1033 b 51 667 194 1033 53 889 l 228 667 b 410 875 229 797 299 875 b 579 694 517 875 579 810 b 396 414 579 597 533 531 l 64 133 l 64 0 z "},"3":{"ha":790,"x_min":0,"x_max":0,"o":"m 360 503 b 568 325 501 503 568 428 b 383 140 568 213 494 140 b 203 324 275 140 203 207 l 28 324 b 381 -18 28 104 182 -18 b 749 322 586 -18 749 114 b 472 646 749 501 628 615 l 719 874 l 719 1015 l 75 1015 l 75 858 l 497 858 l 236 618 l 236 503 z "},"4":{"ha":897,"x_min":0,"x_max":0,"o":"m 846 193 l 846 349 l 722 349 l 722 1015 l 499 1015 l 39 349 l 39 193 l 554 193 l 554 0 l 722 0 l 722 193 z m 228 349 l 554 824 l 554 349 z "},"5":{"ha":833,"x_min":0,"x_max":0,"o":"m 410 -17 b 790 353 636 -17 790 133 b 453 690 790 553 656 690 b 274 640 383 690 322 672 l 328 851 l 729 851 l 729 1015 l 200 1015 l 75 483 l 232 450 b 417 542 268 503 339 542 b 610 343 539 542 610 461 b 414 142 610 219 533 142 b 233 325 301 142 233 210 l 57 325 b 410 -17 57 119 197 -17 z "},"6":{"ha":861,"x_min":0,"x_max":0,"o":"m 204 717 b 50 351 90 563 50 474 b 433 -18 50 143 214 -18 b 811 350 650 -18 811 133 b 460 703 811 556 669 703 b 383 692 435 703 408 699 l 626 1015 l 424 1015 z m 232 350 b 433 557 232 472 313 557 b 632 350 550 557 632 472 b 433 140 632 226 549 140 b 232 350 314 140 232 226 z "},"7":{"ha":747,"x_min":0,"x_max":0,"o":"m 10 1015 l 10 851 l 561 851 l 186 0 l 371 0 l 739 851 l 739 1015 z "},"8":{"ha":890,"x_min":0,"x_max":0,"o":"m 58 288 b 444 -17 58 103 210 -17 b 832 288 681 -17 832 104 b 656 546 832 410 763 508 b 796 758 746 583 796 660 b 447 1033 796 924 656 1033 b 94 761 238 1033 94 922 b 232 546 94 663 143 586 b 58 288 126 506 58 408 z m 256 746 b 444 882 256 829 329 882 b 631 744 558 882 631 829 b 444 607 631 660 558 607 b 256 746 329 607 256 661 z m 232 300 b 444 460 232 399 314 460 b 657 300 575 460 657 399 b 446 140 657 201 575 140 b 232 300 314 140 232 201 z "},"9":{"ha":861,"x_min":0,"x_max":0,"o":"m 657 299 b 811 664 771 453 811 542 b 428 1033 811 872 647 1033 b 50 665 211 1033 50 882 b 401 313 50 460 192 313 b 478 324 426 313 453 317 l 235 0 l 438 0 z m 629 665 b 428 458 629 543 549 458 b 229 665 311 458 229 543 b 428 875 229 789 311 875 b 629 665 547 875 629 789 z "},"A":{"ha":946,"x_min":0,"x_max":0,"o":"m 200 0 l 282 235 l 661 235 l 743 0 l 931 0 l 564 1015 l 382 1015 l 15 0 z m 450 713 b 472 790 460 740 468 771 b 493 713 475 769 485 739 l 610 385 l 335 385 z "},"Á":{"ha":946,"x_min":0,"x_max":0,"o":"m 674 1293 l 517 1293 l 413 1088 l 538 1088 z m 200 0 l 282 235 l 661 235 l 743 0 l 931 0 l 564 1015 l 382 1015 l 15 0 z m 450 713 b 472 790 460 740 468 771 b 493 713 475 769 485 739 l 610 385 l 335 385 z "},"Ă":{"ha":946,"x_min":0,"x_max":0,"o":"m 569 1296 b 475 1192 569 1231 536 1192 b 381 1296 414 1192 381 1229 l 257 1296 b 475 1076 257 1161 342 1076 b 692 1296 607 1076 692 1161 z m 200 0 l 282 235 l 661 235 l 743 0 l 931 0 l 564 1015 l 382 1015 l 15 0 z m 450 713 b 472 790 460 740 468 771 b 493 713 475 769 485 739 l 610 385 l 335 385 z "},"Â":{"ha":946,"x_min":0,"x_max":0,"o":"m 394 1088 l 475 1225 l 554 1088 l 686 1088 l 561 1304 l 388 1304 l 263 1088 z m 200 0 l 282 235 l 661 235 l 743 0 l 931 0 l 564 1015 l 382 1015 l 15 0 z m 450 713 b 472 790 460 740 468 771 b 493 713 475 769 485 739 l 610 385 l 335 385 z "},"Ä":{"ha":946,"x_min":0,"x_max":0,"o":"m 351 1104 b 443 1197 401 1104 443 1146 b 351 1290 443 1247 401 1290 b 258 1197 300 1290 258 1247 b 351 1104 258 1146 300 1104 z m 599 1104 b 690 1197 649 1104 690 1146 b 599 1290 690 1247 649 1290 b 506 1197 549 1290 506 1247 b 599 1104 506 1146 547 1104 z m 200 0 l 282 235 l 661 235 l 743 0 l 931 0 l 564 1015 l 382 1015 l 15 0 z m 450 713 b 472 790 460 740 468 771 b 493 713 475 769 485 739 l 610 385 l 335 385 z "},"À":{"ha":946,"x_min":0,"x_max":0,"o":"m 536 1088 l 432 1294 l 275 1294 l 410 1088 z m 200 0 l 282 235 l 661 235 l 743 0 l 931 0 l 564 1015 l 382 1015 l 15 0 z m 450 713 b 472 790 460 740 468 771 b 493 713 475 769 485 739 l 610 385 l 335 385 z "},"Ā":{"ha":946,"x_min":0,"x_max":0,"o":"m 289 1139 l 661 1139 l 661 1258 l 289 1258 z m 200 0 l 282 235 l 661 235 l 743 0 l 931 0 l 564 1015 l 382 1015 l 15 0 z m 450 713 b 472 790 460 740 468 771 b 493 713 475 769 485 739 l 610 385 l 335 385 z "},"Ą":{"ha":946,"x_min":0,"x_max":0,"o":"m 200 0 l 282 235 l 661 235 l 743 0 l 826 0 b 715 -143 751 -29 715 -86 b 853 -272 715 -214 769 -272 b 924 -260 879 -272 901 -269 l 924 -147 b 886 -156 910 -153 897 -156 b 831 -104 853 -156 831 -135 b 931 0 831 -68 861 -25 l 564 1015 l 382 1015 l 15 0 z m 450 713 b 472 790 460 740 468 771 b 493 713 475 769 485 739 l 610 385 l 335 385 z "},"Å":{"ha":946,"x_min":0,"x_max":0,"o":"m 475 1071 b 653 1247 576 1071 653 1147 b 475 1425 653 1347 576 1425 b 296 1247 374 1425 296 1349 b 475 1071 296 1144 371 1071 z m 475 1163 b 393 1250 425 1163 393 1197 b 475 1333 393 1300 426 1333 b 556 1250 522 1333 556 1299 b 475 1163 556 1197 524 1163 z m 200 0 l 282 235 l 661 235 l 743 0 l 931 0 l 564 1015 l 382 1015 l 15 0 z m 450 713 b 472 790 460 740 468 771 b 493 713 475 769 485 739 l 610 385 l 335 385 z "},"Ǻ":{"ha":946,"x_min":0,"x_max":0,"o":"m 675 1514 l 518 1514 l 414 1308 l 540 1308 z m 200 0 l 282 235 l 661 235 l 743 0 l 931 0 l 583 961 b 653 1103 626 993 653 1044 b 474 1281 653 1203 575 1281 b 296 1103 374 1281 296 1204 b 363 963 296 1043 321 993 l 15 0 z m 474 1018 b 393 1106 425 1018 393 1053 b 474 1189 393 1156 426 1189 b 556 1106 522 1189 556 1154 b 474 1018 556 1053 524 1018 z m 450 713 b 472 790 460 740 468 771 b 493 713 475 769 485 739 l 610 385 l 335 385 z "},"Ã":{"ha":946,"x_min":0,"x_max":0,"o":"m 338 1099 b 385 1181 338 1150 351 1181 b 579 1099 435 1181 483 1099 b 711 1294 668 1099 722 1163 l 611 1294 b 563 1213 611 1244 597 1213 b 365 1294 504 1213 457 1294 b 238 1099 278 1294 225 1218 z m 200 0 l 282 235 l 661 235 l 743 0 l 931 0 l 564 1015 l 382 1015 l 15 0 z m 450 713 b 472 790 460 740 468 771 b 493 713 475 769 485 739 l 610 385 l 335 385 z "},"Æ":{"ha":1306,"x_min":0,"x_max":0,"o":"m 8 0 l 208 0 l 306 253 l 597 253 l 597 0 l 1226 0 l 1226 164 l 774 164 l 774 433 l 1179 433 l 1179 590 l 774 590 l 774 851 l 1226 851 l 1226 1015 l 417 1015 z m 363 403 l 536 851 l 597 851 l 597 403 z "},"Ǽ":{"ha":1306,"x_min":0,"x_max":0,"o":"m 985 1293 l 828 1293 l 724 1088 l 850 1088 z m 8 0 l 208 0 l 306 253 l 597 253 l 597 0 l 1226 0 l 1226 164 l 774 164 l 774 433 l 1179 433 l 1179 590 l 774 590 l 774 851 l 1226 851 l 1226 1015 l 417 1015 z m 363 403 l 536 851 l 597 851 l 597 403 z "},"B":{"ha":904,"x_min":0,"x_max":0,"o":"m 113 0 l 524 0 b 854 275 733 0 854 101 b 693 508 854 393 800 474 b 839 742 789 549 839 629 b 517 1015 839 911 717 1015 l 113 1015 z m 501 858 b 657 724 601 858 657 811 b 506 582 657 633 603 582 l 290 582 l 290 858 z m 517 432 b 672 297 615 432 672 383 b 517 157 672 206 617 157 l 290 157 l 290 432 z "},"C":{"ha":1054,"x_min":0,"x_max":0,"o":"m 542 -17 b 1007 339 782 -17 968 125 l 822 339 b 546 154 789 226 683 154 b 240 508 360 154 240 293 b 546 861 240 725 358 861 b 817 674 681 861 782 792 l 1004 674 b 550 1032 969 892 790 1032 b 54 507 253 1032 54 822 b 542 -17 54 189 246 -17 z "},"Ć":{"ha":1054,"x_min":0,"x_max":0,"o":"m 747 1293 l 590 1293 l 486 1088 l 611 1088 z m 542 -17 b 1007 339 782 -17 968 125 l 822 339 b 546 154 789 226 683 154 b 240 508 360 154 240 293 b 546 861 240 725 358 861 b 817 674 681 861 782 792 l 1004 674 b 550 1032 969 892 790 1032 b 54 507 253 1032 54 822 b 542 -17 54 189 246 -17 z "},"Č":{"ha":1054,"x_min":0,"x_max":0,"o":"m 461 1088 l 635 1088 l 760 1304 l 628 1304 l 549 1167 l 468 1304 l 336 1304 z m 542 -17 b 1007 339 782 -17 968 125 l 822 339 b 546 154 789 226 683 154 b 240 508 360 154 240 293 b 546 861 240 725 358 861 b 817 674 681 861 782 792 l 1004 674 b 550 1032 969 892 790 1032 b 54 507 253 1032 54 822 b 542 -17 54 189 246 -17 z "},"Ç":{"ha":1054,"x_min":0,"x_max":0,"o":"m 440 -272 b 543 -296 469 -287 500 -296 b 700 -165 629 -296 700 -251 b 589 -57 700 -89 643 -57 b 543 -64 572 -57 557 -60 l 567 -17 b 1007 339 794 -7 969 132 l 822 339 b 546 154 789 226 683 154 b 240 508 360 154 240 293 b 546 861 240 725 358 861 b 817 674 681 861 782 792 l 1004 674 b 550 1032 969 892 790 1032 b 54 507 253 1032 54 822 b 496 -15 54 206 226 6 l 463 -85 l 479 -132 b 547 -119 501 -124 521 -119 b 607 -167 585 -119 607 -136 b 533 -219 607 -199 581 -219 b 440 -194 499 -219 472 -210 z "},"Ĉ":{"ha":1054,"x_min":0,"x_max":0,"o":"m 469 1088 l 549 1225 l 628 1088 l 761 1088 l 635 1304 l 461 1304 l 336 1088 z m 542 -17 b 1007 339 782 -17 968 125 l 822 339 b 546 154 789 226 683 154 b 240 508 360 154 240 293 b 546 861 240 725 358 861 b 817 674 681 861 782 792 l 1004 674 b 550 1032 969 892 790 1032 b 54 507 253 1032 54 822 b 542 -17 54 189 246 -17 z "},"Ċ":{"ha":1054,"x_min":0,"x_max":0,"o":"m 547 1104 b 644 1201 600 1104 644 1149 b 547 1299 644 1253 600 1299 b 451 1201 494 1299 451 1254 b 547 1104 451 1147 493 1104 z m 542 -17 b 1007 339 782 -17 968 125 l 822 339 b 546 154 789 226 683 154 b 240 508 360 154 240 293 b 546 861 240 725 358 861 b 817 674 681 861 782 792 l 1004 674 b 550 1032 969 892 790 1032 b 54 507 253 1032 54 822 b 542 -17 54 189 246 -17 z "},"D":{"ha":1028,"x_min":0,"x_max":0,"o":"m 478 0 b 975 506 772 0 975 207 b 468 1015 975 808 768 1015 l 113 1015 l 113 0 z m 451 851 b 788 506 661 851 788 721 b 461 164 788 294 664 164 l 290 164 l 290 851 z "},"Ð":{"ha":1028,"x_min":0,"x_max":0,"o":"m 18 435 l 113 435 l 113 0 l 478 0 b 975 506 772 0 975 207 b 468 1015 975 808 768 1015 l 113 1015 l 113 581 l 18 581 z m 496 435 l 496 581 l 290 581 l 290 851 l 451 851 b 788 506 661 851 788 721 b 461 164 788 294 664 164 l 290 164 l 290 435 z "},"Ď":{"ha":1028,"x_min":0,"x_max":0,"o":"m 360 1088 l 532 1088 l 658 1303 l 525 1303 l 446 1167 l 367 1303 l 233 1303 z m 478 0 b 975 506 772 0 975 207 b 468 1015 975 808 768 1015 l 113 1015 l 113 0 z m 451 851 b 788 506 661 851 788 721 b 461 164 788 294 664 164 l 290 164 l 290 851 z "},"Đ":{"ha":1028,"x_min":0,"x_max":0,"o":"m 18 435 l 113 435 l 113 0 l 478 0 b 975 506 772 0 975 207 b 468 1015 975 808 768 1015 l 113 1015 l 113 581 l 18 581 z m 496 435 l 496 581 l 290 581 l 290 851 l 451 851 b 788 506 661 851 788 721 b 461 164 788 294 664 164 l 290 164 l 290 435 z "},"E":{"ha":824,"x_min":0,"x_max":0,"o":"m 743 0 l 743 164 l 290 164 l 290 433 l 696 433 l 696 590 l 290 590 l 290 851 l 743 851 l 743 1015 l 113 1015 l 113 0 z "},"É":{"ha":824,"x_min":0,"x_max":0,"o":"m 625 1293 l 467 1293 l 363 1088 l 489 1088 z m 743 0 l 743 164 l 290 164 l 290 433 l 696 433 l 696 590 l 290 590 l 290 851 l 743 851 l 743 1015 l 113 1015 l 113 0 z "},"Ĕ":{"ha":824,"x_min":0,"x_max":0,"o":"m 519 1296 b 426 1192 519 1231 486 1192 b 332 1296 365 1192 332 1229 l 208 1296 b 426 1076 208 1161 292 1076 b 642 1296 557 1076 642 1161 z m 743 0 l 743 164 l 290 164 l 290 433 l 696 433 l 696 590 l 290 590 l 290 851 l 743 851 l 743 1015 l 113 1015 l 113 0 z "},"Ě":{"ha":824,"x_min":0,"x_max":0,"o":"m 338 1088 l 511 1088 l 638 1304 l 504 1304 l 425 1167 l 346 1304 l 213 1304 z m 743 0 l 743 164 l 290 164 l 290 433 l 696 433 l 696 590 l 290 590 l 290 851 l 743 851 l 743 1015 l 113 1015 l 113 0 z "},"Ê":{"ha":824,"x_min":0,"x_max":0,"o":"m 346 1088 l 425 1225 l 504 1088 l 638 1088 l 511 1304 l 338 1304 l 213 1088 z m 743 0 l 743 164 l 290 164 l 290 433 l 696 433 l 696 590 l 290 590 l 290 851 l 743 851 l 743 1015 l 113 1015 l 113 0 z "},"Ë":{"ha":824,"x_min":0,"x_max":0,"o":"m 301 1104 b 393 1197 351 1104 393 1146 b 301 1290 393 1247 351 1290 b 208 1197 251 1290 208 1247 b 301 1104 208 1146 250 1104 z m 549 1104 b 642 1197 599 1104 642 1146 b 549 1290 642 1247 599 1290 b 457 1197 499 1290 457 1247 b 549 1104 457 1146 497 1104 z m 743 0 l 743 164 l 290 164 l 290 433 l 696 433 l 696 590 l 290 590 l 290 851 l 743 851 l 743 1015 l 113 1015 l 113 0 z "},"Ė":{"ha":824,"x_min":0,"x_max":0,"o":"m 424 1104 b 521 1201 476 1104 521 1149 b 424 1299 521 1253 476 1299 b 328 1201 372 1299 328 1254 b 424 1104 328 1147 371 1104 z m 743 0 l 743 164 l 290 164 l 290 433 l 696 433 l 696 590 l 290 590 l 290 851 l 743 851 l 743 1015 l 113 1015 l 113 0 z "},"È":{"ha":824,"x_min":0,"x_max":0,"o":"m 486 1088 l 383 1294 l 225 1294 l 361 1088 z m 743 0 l 743 164 l 290 164 l 290 433 l 696 433 l 696 590 l 290 590 l 290 851 l 743 851 l 743 1015 l 113 1015 l 113 0 z "},"Ē":{"ha":824,"x_min":0,"x_max":0,"o":"m 239 1139 l 611 1139 l 611 1258 l 239 1258 z m 743 0 l 743 164 l 290 164 l 290 433 l 696 433 l 696 590 l 290 590 l 290 851 l 743 851 l 743 1015 l 113 1015 l 113 0 z "},"Ę":{"ha":824,"x_min":0,"x_max":0,"o":"m 639 0 b 528 -143 564 -29 528 -86 b 665 -272 528 -214 582 -272 b 736 -260 692 -272 714 -269 l 736 -147 b 699 -156 722 -153 710 -156 b 643 -104 665 -156 643 -135 b 743 0 643 -68 674 -25 l 743 164 l 290 164 l 290 433 l 696 433 l 696 590 l 290 590 l 290 851 l 743 851 l 743 1015 l 113 1015 l 113 0 z "},"F":{"ha":788,"x_min":0,"x_max":0,"o":"m 668 415 l 668 575 l 290 575 l 290 851 l 740 851 l 740 1015 l 113 1015 l 113 0 l 290 0 l 290 415 z "},"G":{"ha":1086,"x_min":0,"x_max":0,"o":"m 557 865 b 814 690 679 865 782 810 l 1001 690 b 561 1032 972 897 793 1032 b 54 504 256 1032 54 813 b 538 -15 54 192 253 -15 b 846 117 675 -15 790 39 l 857 0 l 1007 0 l 1007 571 l 535 571 l 535 414 l 842 414 l 842 410 b 558 150 842 247 735 150 b 240 500 371 150 240 274 b 557 865 240 719 356 865 z "},"Ğ":{"ha":1086,"x_min":0,"x_max":0,"o":"m 656 1296 b 561 1192 656 1231 621 1192 b 467 1296 500 1192 467 1229 l 343 1296 b 561 1078 343 1161 426 1078 b 778 1296 693 1078 778 1163 z m 557 865 b 814 690 679 865 782 810 l 1001 690 b 561 1032 972 897 793 1032 b 54 504 256 1032 54 813 b 538 -15 54 192 253 -15 b 846 117 675 -15 790 39 l 857 0 l 1007 0 l 1007 571 l 535 571 l 535 414 l 842 414 l 842 410 b 558 150 842 247 735 150 b 240 500 371 150 240 274 b 557 865 240 719 356 865 z "},"Ĝ":{"ha":1086,"x_min":0,"x_max":0,"o":"m 481 1089 l 560 1225 l 639 1089 l 772 1089 l 647 1304 l 474 1304 l 349 1089 z m 557 865 b 814 690 679 865 782 810 l 1001 690 b 561 1032 972 897 793 1032 b 54 504 256 1032 54 813 b 538 -15 54 192 253 -15 b 846 117 675 -15 790 39 l 857 0 l 1007 0 l 1007 571 l 535 571 l 535 414 l 842 414 l 842 410 b 558 150 842 247 735 150 b 240 500 371 150 240 274 b 557 865 240 719 356 865 z "},"Ģ":{"ha":1086,"x_min":0,"x_max":0,"o":"m 557 865 b 814 690 679 865 782 810 l 1001 690 b 561 1032 972 897 793 1032 b 54 504 256 1032 54 813 b 538 -15 54 192 253 -15 b 846 117 675 -15 790 39 l 857 0 l 1007 0 l 1007 571 l 535 571 l 535 414 l 842 414 l 842 410 b 558 150 842 247 735 150 b 240 500 371 150 240 274 b 557 865 240 719 356 865 z m 625 -157 b 533 -49 625 -90 589 -49 b 444 -132 481 -49 444 -82 b 521 -211 444 -176 476 -211 b 554 -203 533 -211 544 -208 b 458 -257 551 -244 518 -262 l 458 -312 b 625 -157 563 -325 625 -254 z "},"Ġ":{"ha":1086,"x_min":0,"x_max":0,"o":"m 560 1104 b 657 1201 613 1104 657 1149 b 560 1299 657 1254 613 1299 b 463 1201 507 1299 463 1254 b 560 1104 463 1147 506 1104 z m 557 865 b 814 690 679 865 782 810 l 1001 690 b 561 1032 972 897 793 1032 b 54 504 256 1032 54 813 b 538 -15 54 192 253 -15 b 846 117 675 -15 790 39 l 857 0 l 1007 0 l 1007 571 l 535 571 l 535 414 l 842 414 l 842 410 b 558 150 842 247 735 150 b 240 500 371 150 240 274 b 557 865 240 719 356 865 z "},"H":{"ha":1031,"x_min":0,"x_max":0,"o":"m 290 0 l 290 431 l 740 431 l 740 0 l 918 0 l 918 1015 l 740 1015 l 740 596 l 290 596 l 290 1015 l 113 1015 l 113 0 z "},"Ħ":{"ha":1031,"x_min":0,"x_max":0,"o":"m 290 0 l 290 431 l 740 431 l 740 0 l 918 0 l 918 742 l 1028 742 l 1028 893 l 918 893 l 918 1015 l 740 1015 l 740 893 l 290 893 l 290 1015 l 113 1015 l 113 893 l 4 893 l 4 742 l 113 742 l 113 0 z m 290 596 l 290 742 l 740 742 l 740 596 z "},"I":{"ha":403,"x_min":0,"x_max":0,"o":"m 290 1015 l 113 1015 l 113 0 l 290 0 z "},"Í":{"ha":403,"x_min":0,"x_max":0,"o":"m 400 1293 l 243 1293 l 139 1088 l 265 1088 z m 290 1015 l 113 1015 l 113 0 l 290 0 z "},"Î":{"ha":403,"x_min":0,"x_max":0,"o":"m 122 1088 l 201 1225 l 281 1088 l 413 1088 l 288 1304 l 114 1304 l -11 1088 z m 290 1015 l 113 1015 l 113 0 l 290 0 z "},"Ï":{"ha":403,"x_min":0,"x_max":0,"o":"m 78 1104 b 169 1197 128 1104 169 1146 b 78 1290 169 1247 128 1290 b -15 1197 26 1290 -15 1247 b 78 1104 -15 1146 26 1104 z m 325 1104 b 417 1197 375 1104 417 1146 b 325 1290 417 1247 375 1290 b 232 1197 275 1290 232 1247 b 325 1104 232 1146 274 1104 z m 290 1015 l 113 1015 l 113 0 l 290 0 z "},"İ":{"ha":403,"x_min":0,"x_max":0,"o":"m 200 1104 b 297 1201 253 1104 297 1149 b 200 1299 297 1253 253 1299 b 104 1201 147 1299 104 1254 b 200 1104 104 1147 147 1104 z m 290 1015 l 113 1015 l 113 0 l 290 0 z "},"Ì":{"ha":403,"x_min":0,"x_max":0,"o":"m 263 1088 l 158 1294 l 1 1294 l 136 1088 z m 290 1015 l 113 1015 l 113 0 l 290 0 z "},"Ī":{"ha":403,"x_min":0,"x_max":0,"o":"m 15 1139 l 388 1139 l 388 1258 l 15 1258 z m 290 1015 l 113 1015 l 113 0 l 290 0 z "},"Į":{"ha":403,"x_min":0,"x_max":0,"o":"m 185 0 b 75 -143 110 -29 75 -86 b 213 -272 75 -214 128 -272 b 282 -260 239 -272 261 -269 l 282 -147 b 244 -156 268 -153 256 -156 b 190 -104 211 -156 190 -135 b 289 0 190 -68 219 -25 l 290 0 l 290 1015 l 113 1015 l 113 0 z "},"Ĩ":{"ha":403,"x_min":0,"x_max":0,"o":"m 64 1099 b 111 1181 64 1150 78 1181 b 306 1099 163 1181 210 1099 b 438 1294 394 1099 449 1163 l 338 1294 b 289 1213 338 1244 324 1213 b 92 1294 231 1213 183 1294 b -36 1099 4 1294 -49 1218 z m 290 1015 l 113 1015 l 113 0 l 290 0 z "},"J":{"ha":767,"x_min":0,"x_max":0,"o":"m 28 286 b 343 -18 28 111 135 -18 b 661 283 536 -18 661 104 l 661 1015 l 483 1015 l 483 293 b 342 147 483 204 442 147 b 199 286 242 147 199 208 l 199 346 l 28 346 z "},"Ĵ":{"ha":767,"x_min":0,"x_max":0,"o":"m 492 1089 l 572 1225 l 651 1089 l 783 1089 l 658 1304 l 485 1304 l 360 1089 z m 28 286 b 343 -18 28 111 135 -18 b 661 283 536 -18 661 104 l 661 1015 l 483 1015 l 483 293 b 342 147 483 204 442 147 b 199 286 242 147 199 208 l 199 346 l 28 346 z "},"K":{"ha":936,"x_min":0,"x_max":0,"o":"m 290 1015 l 113 1015 l 113 0 l 290 0 l 290 217 l 458 432 l 710 0 l 915 0 l 575 582 l 911 1015 l 701 1015 l 290 482 z "},"Ķ":{"ha":936,"x_min":0,"x_max":0,"o":"m 290 1015 l 113 1015 l 113 0 l 290 0 l 290 217 l 458 432 l 710 0 l 915 0 l 575 582 l 911 1015 l 701 1015 l 290 482 z m 576 -157 b 483 -49 576 -90 540 -49 b 396 -132 432 -49 396 -82 b 472 -211 396 -176 428 -211 b 504 -204 485 -211 494 -208 b 408 -257 500 -244 469 -262 l 408 -312 b 576 -157 514 -325 576 -254 z "},"L":{"ha":747,"x_min":0,"x_max":0,"o":"m 290 1015 l 113 1015 l 113 0 l 715 0 l 715 164 l 290 164 z "},"Ĺ":{"ha":747,"x_min":0,"x_max":0,"o":"m 401 1274 l 244 1274 l 140 1068 l 265 1068 z m 290 1015 l 113 1015 l 113 0 l 715 0 l 715 164 l 290 164 z "},"Ľ":{"ha":747,"x_min":0,"x_max":0,"o":"m 290 1015 l 113 1015 l 113 0 l 715 0 l 715 164 l 290 164 z m 360 764 l 463 764 l 500 1015 l 360 1015 z "},"Ļ":{"ha":747,"x_min":0,"x_max":0,"o":"m 290 1015 l 113 1015 l 113 0 l 715 0 l 715 164 l 290 164 z m 510 -157 b 417 -49 510 -90 472 -49 b 329 -132 365 -49 329 -82 b 406 -211 329 -176 361 -211 b 438 -203 417 -211 428 -208 b 342 -257 435 -244 403 -262 l 342 -312 b 510 -157 447 -325 510 -254 z "},"Ŀ":{"ha":747,"x_min":0,"x_max":0,"o":"m 290 1015 l 113 1015 l 113 0 l 715 0 l 715 164 l 290 164 z m 496 408 b 592 504 549 408 592 453 b 496 600 592 556 549 600 b 399 504 443 600 399 557 b 496 408 399 453 444 408 z "},"Ł":{"ha":747,"x_min":0,"x_max":0,"o":"m 22 344 l 113 388 l 113 0 l 715 0 l 715 164 l 290 164 l 290 472 l 490 568 l 490 706 l 290 610 l 290 1015 l 113 1015 l 113 525 l 22 482 z "},"M":{"ha":1228,"x_min":0,"x_max":0,"o":"m 285 0 l 285 364 b 274 647 285 490 283 586 l 531 0 l 694 0 l 953 649 b 943 313 943 576 943 517 l 943 0 l 1115 0 l 1115 1015 l 940 1015 l 613 207 l 285 1015 l 113 1015 l 113 0 z "},"N":{"ha":1053,"x_min":0,"x_max":0,"o":"m 288 0 l 288 719 l 765 0 l 940 0 l 940 1015 l 765 1015 l 765 296 l 289 1015 l 113 1015 l 113 0 z "},"Ń":{"ha":1053,"x_min":0,"x_max":0,"o":"m 731 1293 l 574 1293 l 469 1088 l 594 1088 z m 288 0 l 288 719 l 765 0 l 940 0 l 940 1015 l 765 1015 l 765 296 l 289 1015 l 113 1015 l 113 0 z "},"Ň":{"ha":1053,"x_min":0,"x_max":0,"o":"m 444 1088 l 618 1088 l 743 1304 l 611 1304 l 532 1167 l 451 1304 l 319 1304 z m 288 0 l 288 719 l 765 0 l 940 0 l 940 1015 l 765 1015 l 765 296 l 289 1015 l 113 1015 l 113 0 z "},"Ņ":{"ha":1053,"x_min":0,"x_max":0,"o":"m 288 0 l 288 719 l 765 0 l 940 0 l 940 1015 l 765 1015 l 765 296 l 289 1015 l 113 1015 l 113 0 z m 622 -157 b 529 -49 622 -90 585 -49 b 442 -132 478 -49 442 -82 b 518 -211 442 -176 472 -211 b 550 -203 529 -211 540 -208 b 454 -257 547 -244 515 -262 l 454 -312 b 622 -157 560 -325 622 -254 z "},"Ŋ":{"ha":1053,"x_min":0,"x_max":0,"o":"m 708 -337 b 940 -97 857 -337 940 -243 l 940 1015 l 765 1015 l 765 296 l 289 1015 l 113 1015 l 113 0 l 288 0 l 288 719 l 772 -10 l 772 -78 b 683 -181 772 -147 743 -181 b 613 -169 663 -181 636 -176 l 583 -319 b 708 -337 628 -333 667 -337 z "},"Ñ":{"ha":1053,"x_min":0,"x_max":0,"o":"m 394 1099 b 442 1181 394 1150 408 1181 b 636 1099 492 1181 540 1099 b 768 1294 725 1099 779 1163 l 668 1294 b 619 1213 668 1244 654 1213 b 422 1294 561 1213 514 1294 b 294 1099 335 1294 282 1218 z m 288 0 l 288 719 l 765 0 l 940 0 l 940 1015 l 765 1015 l 765 296 l 289 1015 l 113 1015 l 113 0 z "},"O":{"ha":1092,"x_min":0,"x_max":0,"o":"m 1039 508 b 546 1033 1039 818 836 1033 b 54 508 256 1033 54 817 b 544 -17 54 199 254 -17 b 1039 508 836 -17 1039 200 z m 851 508 b 546 154 851 294 732 154 b 240 508 360 154 240 292 b 546 863 240 725 360 863 b 851 508 732 863 851 725 z "},"Ó":{"ha":1092,"x_min":0,"x_max":0,"o":"m 746 1293 l 589 1293 l 485 1088 l 610 1088 z m 1039 508 b 546 1033 1039 818 836 1033 b 54 508 256 1033 54 817 b 544 -17 54 199 254 -17 b 1039 508 836 -17 1039 200 z m 851 508 b 546 154 851 294 732 154 b 240 508 360 154 240 292 b 546 863 240 725 360 863 b 851 508 732 863 851 725 z "},"Ô":{"ha":1092,"x_min":0,"x_max":0,"o":"m 467 1088 l 546 1225 l 625 1088 l 758 1088 l 633 1304 l 460 1304 l 333 1088 z m 1039 508 b 546 1033 1039 818 836 1033 b 54 508 256 1033 54 817 b 544 -17 54 199 254 -17 b 1039 508 836 -17 1039 200 z m 851 508 b 546 154 851 294 732 154 b 240 508 360 154 240 292 b 546 863 240 725 360 863 b 851 508 732 863 851 725 z "},"Ö":{"ha":1092,"x_min":0,"x_max":0,"o":"m 422 1104 b 515 1197 472 1104 515 1146 b 422 1290 515 1247 472 1290 b 331 1197 372 1290 331 1247 b 422 1104 331 1146 371 1104 z m 669 1104 b 763 1197 719 1104 763 1146 b 669 1290 763 1247 719 1290 b 578 1197 619 1290 578 1247 b 669 1104 578 1146 618 1104 z m 1039 508 b 546 1033 1039 818 836 1033 b 54 508 256 1033 54 817 b 544 -17 54 199 254 -17 b 1039 508 836 -17 1039 200 z m 851 508 b 546 154 851 294 732 154 b 240 508 360 154 240 292 b 546 863 240 725 360 863 b 851 508 732 863 851 725 z "},"Ò":{"ha":1092,"x_min":0,"x_max":0,"o":"m 607 1088 l 504 1294 l 347 1294 l 482 1088 z m 1039 508 b 546 1033 1039 818 836 1033 b 54 508 256 1033 54 817 b 544 -17 54 199 254 -17 b 1039 508 836 -17 1039 200 z m 851 508 b 546 154 851 294 732 154 b 240 508 360 154 240 292 b 546 863 240 725 360 863 b 851 508 732 863 851 725 z "},"Ő":{"ha":1092,"x_min":0,"x_max":0,"o":"m 643 1293 l 501 1293 l 388 1088 l 507 1088 z m 857 1293 l 714 1293 l 594 1088 l 714 1088 z m 1039 508 b 546 1033 1039 818 836 1033 b 54 508 256 1033 54 817 b 544 -17 54 199 254 -17 b 1039 508 836 -17 1039 200 z m 851 508 b 546 154 851 294 732 154 b 240 508 360 154 240 292 b 546 863 240 725 360 863 b 851 508 732 863 851 725 z "},"Ō":{"ha":1092,"x_min":0,"x_max":0,"o":"m 360 1139 l 732 1139 l 732 1258 l 360 1258 z m 1039 508 b 546 1033 1039 818 836 1033 b 54 508 256 1033 54 817 b 544 -17 54 199 254 -17 b 1039 508 836 -17 1039 200 z m 851 508 b 546 154 851 294 732 154 b 240 508 360 154 240 292 b 546 863 240 725 360 863 b 851 508 732 863 851 725 z "},"Ø":{"ha":1092,"x_min":0,"x_max":0,"o":"m 1039 508 b 908 879 1039 658 992 786 l 1013 1017 l 850 1017 l 808 963 b 546 1033 735 1008 646 1033 b 54 508 256 1033 54 817 b 183 138 54 358 101 229 l 81 1 l 250 1 l 288 51 b 544 -17 360 7 447 -17 b 1039 508 836 -17 1039 200 z m 240 508 b 546 863 240 725 360 863 b 703 822 606 863 658 849 l 297 286 b 240 508 260 344 240 419 z m 851 508 b 546 154 851 294 732 154 b 393 192 488 154 436 168 l 796 729 b 851 508 832 671 851 596 z "},"Ǿ":{"ha":1092,"x_min":0,"x_max":0,"o":"m 735 1279 l 578 1279 l 474 1074 l 599 1074 z m 1039 508 b 908 879 1039 658 992 786 l 1013 1017 l 850 1017 l 808 963 b 546 1033 735 1008 646 1033 b 54 508 256 1033 54 817 b 183 138 54 358 101 229 l 81 1 l 250 1 l 288 51 b 544 -17 360 7 447 -17 b 1039 508 836 -17 1039 200 z m 240 508 b 546 863 240 725 360 863 b 703 822 606 863 658 849 l 297 286 b 240 508 260 344 240 419 z m 851 508 b 546 154 851 294 732 154 b 393 192 488 154 436 168 l 796 729 b 851 508 832 671 851 596 z "},"Õ":{"ha":1092,"x_min":0,"x_max":0,"o":"m 410 1099 b 457 1181 410 1150 424 1181 b 651 1099 507 1181 556 1099 b 783 1294 740 1099 794 1163 l 683 1294 b 635 1213 683 1244 669 1213 b 438 1294 575 1213 529 1294 b 310 1099 349 1294 297 1218 z m 1039 508 b 546 1033 1039 818 836 1033 b 54 508 256 1033 54 817 b 544 -17 54 199 254 -17 b 1039 508 836 -17 1039 200 z m 851 508 b 546 154 851 294 732 154 b 240 508 360 154 240 292 b 546 863 240 725 360 863 b 851 508 732 863 851 725 z "},"Œ":{"ha":1572,"x_min":0,"x_max":0,"o":"m 54 508 b 542 -17 54 204 247 -17 b 863 121 682 -17 807 42 l 863 0 l 1493 0 l 1493 164 l 1040 164 l 1040 433 l 1446 433 l 1446 590 l 1040 590 l 1040 851 l 1493 851 l 1493 1015 l 863 1015 l 863 908 b 549 1033 792 988 671 1033 b 54 508 251 1033 54 813 z m 240 510 b 550 863 240 729 374 863 b 860 510 728 863 860 729 b 551 154 860 289 728 154 b 240 510 374 154 240 290 z "},"P":{"ha":888,"x_min":0,"x_max":0,"o":"m 514 350 b 850 683 717 350 850 488 b 514 1015 850 882 718 1015 l 113 1015 l 113 0 l 290 0 l 290 350 z m 479 857 b 664 685 597 857 664 796 b 476 508 664 574 599 508 l 290 508 l 290 857 z "},"Þ":{"ha":888,"x_min":0,"x_max":0,"o":"m 514 192 b 850 511 717 192 850 329 b 514 829 850 696 718 829 l 290 829 l 290 1015 l 113 1015 l 113 0 l 290 0 l 290 192 z m 479 671 b 664 511 597 671 664 610 b 476 350 664 414 599 350 l 290 350 l 290 671 z "},"Q":{"ha":1092,"x_min":0,"x_max":0,"o":"m 910 -76 l 1024 25 l 915 146 b 1039 508 994 238 1039 363 b 546 1033 1039 818 836 1033 b 54 508 256 1033 54 817 b 544 -17 54 199 254 -17 b 799 49 640 -17 726 7 z m 851 508 b 793 285 851 419 831 343 l 658 436 l 546 335 l 681 183 b 546 154 640 164 596 154 b 240 508 360 154 240 292 b 546 863 240 725 360 863 b 851 508 732 863 851 725 z "},"R":{"ha":931,"x_min":0,"x_max":0,"o":"m 290 0 l 290 379 l 508 379 l 681 0 l 875 0 l 682 417 b 865 699 801 465 865 563 b 500 1015 865 899 731 1015 l 113 1015 l 113 0 z m 290 857 l 500 857 b 679 699 613 857 679 800 b 500 536 679 596 613 536 l 290 536 z "},"Ŕ":{"ha":931,"x_min":0,"x_max":0,"o":"m 633 1294 l 476 1294 l 372 1089 l 499 1089 z m 290 0 l 290 379 l 508 379 l 681 0 l 875 0 l 682 417 b 865 699 801 465 865 563 b 500 1015 865 899 731 1015 l 113 1015 l 113 0 z m 290 857 l 500 857 b 679 699 613 857 679 800 b 500 536 679 596 613 536 l 290 536 z "},"Ř":{"ha":931,"x_min":0,"x_max":0,"o":"m 347 1089 l 521 1089 l 646 1304 l 514 1304 l 435 1167 l 356 1304 l 222 1304 z m 290 0 l 290 379 l 508 379 l 681 0 l 875 0 l 682 417 b 865 699 801 465 865 563 b 500 1015 865 899 731 1015 l 113 1015 l 113 0 z m 290 857 l 500 857 b 679 699 613 857 679 800 b 500 536 679 596 613 536 l 290 536 z "},"Ŗ":{"ha":931,"x_min":0,"x_max":0,"o":"m 290 0 l 290 379 l 508 379 l 681 0 l 875 0 l 682 417 b 865 699 801 465 865 563 b 500 1015 865 899 731 1015 l 113 1015 l 113 0 z m 290 857 l 500 857 b 679 699 613 857 679 800 b 500 536 679 596 613 536 l 290 536 z m 574 -157 b 481 -49 574 -90 536 -49 b 393 -132 429 -49 393 -82 b 469 -211 393 -176 424 -211 b 501 -203 481 -211 492 -208 b 406 -257 499 -244 467 -262 l 406 -312 b 574 -157 511 -325 574 -254 z "},"S":{"ha":822,"x_min":0,"x_max":0,"o":"m 54 732 b 317 440 54 576 144 478 l 478 404 b 596 278 561 386 596 346 b 403 142 596 193 521 142 b 218 279 289 142 219 193 l 40 279 b 403 -18 44 97 186 -18 b 774 293 626 -18 774 104 b 515 571 774 444 689 533 l 356 606 b 232 738 271 625 232 665 b 413 875 232 822 303 875 b 579 736 513 875 575 824 l 757 736 b 415 1033 751 919 621 1033 b 54 732 201 1033 54 910 z "},"Ś":{"ha":822,"x_min":0,"x_max":0,"o":"m 607 1293 l 450 1293 l 346 1088 l 471 1088 z m 54 732 b 317 440 54 576 144 478 l 478 404 b 596 278 561 386 596 346 b 403 142 596 193 521 142 b 218 279 289 142 219 193 l 40 279 b 403 -18 44 97 186 -18 b 774 293 626 -18 774 104 b 515 571 774 444 689 533 l 356 606 b 232 738 271 625 232 665 b 413 875 232 822 303 875 b 579 736 513 875 575 824 l 757 736 b 415 1033 751 919 621 1033 b 54 732 201 1033 54 910 z "},"Š":{"ha":822,"x_min":0,"x_max":0,"o":"m 321 1088 l 494 1088 l 619 1304 l 488 1304 l 408 1167 l 328 1304 l 196 1304 z m 54 732 b 317 440 54 576 144 478 l 478 404 b 596 278 561 386 596 346 b 403 142 596 193 521 142 b 218 279 289 142 219 193 l 40 279 b 403 -18 44 97 186 -18 b 774 293 626 -18 774 104 b 515 571 774 444 689 533 l 356 606 b 232 738 271 625 232 665 b 413 875 232 822 303 875 b 579 736 513 875 575 824 l 757 736 b 415 1033 751 919 621 1033 b 54 732 201 1033 54 910 z "},"Ş":{"ha":822,"x_min":0,"x_max":0,"o":"m 306 -272 b 408 -296 333 -287 365 -296 b 565 -165 494 -296 565 -251 b 454 -57 565 -89 508 -57 b 408 -64 438 -57 422 -60 l 432 -17 b 774 293 639 -7 774 113 b 515 571 774 444 689 533 l 356 606 b 232 738 271 625 232 665 b 413 875 232 822 303 875 b 579 736 513 875 575 824 l 757 736 b 415 1033 751 919 621 1033 b 54 732 201 1033 54 910 b 317 440 54 576 144 478 l 478 404 b 596 278 561 386 596 346 b 403 142 596 193 521 142 b 218 279 289 142 219 193 l 40 279 b 360 -17 44 110 168 -3 l 328 -85 l 344 -132 b 413 -119 367 -124 385 -119 b 471 -167 449 -119 471 -136 b 399 -219 471 -199 446 -219 b 306 -194 364 -219 338 -210 z "},"Ŝ":{"ha":822,"x_min":0,"x_max":0,"o":"m 328 1088 l 408 1225 l 488 1088 l 619 1088 l 494 1304 l 321 1304 l 196 1088 z m 54 732 b 317 440 54 576 144 478 l 478 404 b 596 278 561 386 596 346 b 403 142 596 193 521 142 b 218 279 289 142 219 193 l 40 279 b 403 -18 44 97 186 -18 b 774 293 626 -18 774 104 b 515 571 774 444 689 533 l 356 606 b 232 738 271 625 232 665 b 413 875 232 822 303 875 b 579 736 513 875 575 824 l 757 736 b 415 1033 751 919 621 1033 b 54 732 201 1033 54 910 z "},"Ș":{"ha":822,"x_min":0,"x_max":0,"o":"m 54 732 b 317 440 54 576 144 478 l 478 404 b 596 278 561 386 596 346 b 403 142 596 193 521 142 b 218 279 289 142 219 193 l 40 279 b 403 -18 44 97 186 -18 b 774 293 626 -18 774 104 b 515 571 774 444 689 533 l 356 606 b 232 738 271 625 232 665 b 413 875 232 822 303 875 b 579 736 513 875 575 824 l 757 736 b 415 1033 751 919 621 1033 b 54 732 201 1033 54 910 z m 493 -157 b 400 -49 493 -90 457 -49 b 313 -132 349 -49 313 -82 b 389 -211 313 -176 344 -211 b 421 -203 401 -211 413 -208 b 326 -257 418 -244 388 -262 l 326 -312 b 493 -157 431 -325 493 -254 z "},"T":{"ha":819,"x_min":0,"x_max":0,"o":"m 24 851 l 321 851 l 321 0 l 499 0 l 499 851 l 796 851 l 796 1015 l 24 1015 z "},"Ŧ":{"ha":819,"x_min":0,"x_max":0,"o":"m 171 450 l 321 450 l 321 0 l 499 0 l 499 450 l 649 450 l 649 594 l 499 594 l 499 851 l 796 851 l 796 1015 l 24 1015 l 24 851 l 321 851 l 321 594 l 171 594 z "},"Ť":{"ha":819,"x_min":0,"x_max":0,"o":"m 322 1088 l 496 1088 l 621 1304 l 489 1304 l 410 1167 l 331 1304 l 197 1304 z m 24 851 l 321 851 l 321 0 l 499 0 l 499 851 l 796 851 l 796 1015 l 24 1015 z "},"Ţ":{"ha":819,"x_min":0,"x_max":0,"o":"m 310 -272 b 413 -296 339 -287 369 -296 b 569 -165 499 -296 569 -251 b 458 -57 569 -89 513 -57 b 413 -64 442 -57 426 -60 l 444 0 l 499 0 l 499 851 l 796 851 l 796 1015 l 24 1015 l 24 851 l 321 851 l 321 0 l 372 0 l 332 -85 l 349 -132 b 417 -119 371 -124 390 -119 b 475 -167 453 -119 475 -136 b 403 -219 475 -199 450 -219 b 310 -194 368 -219 342 -210 z "},"Ț":{"ha":819,"x_min":0,"x_max":0,"o":"m 24 851 l 321 851 l 321 0 l 499 0 l 499 851 l 796 851 l 796 1015 l 24 1015 z m 497 -157 b 406 -49 497 -90 461 -49 b 317 -132 353 -49 317 -82 b 393 -211 317 -176 349 -211 b 426 -203 406 -211 417 -208 b 331 -257 424 -244 390 -262 l 331 -312 b 497 -157 435 -325 497 -254 z "},"U":{"ha":1015,"x_min":0,"x_max":0,"o":"m 106 371 b 507 -17 106 132 261 -17 b 910 371 754 -17 910 133 l 910 1015 l 732 1015 l 732 382 b 507 156 732 238 651 156 b 283 382 363 156 283 236 l 283 1015 l 106 1015 z "},"Ú":{"ha":1015,"x_min":0,"x_max":0,"o":"m 707 1293 l 550 1293 l 446 1088 l 571 1088 z m 106 371 b 507 -17 106 132 261 -17 b 910 371 754 -17 910 133 l 910 1015 l 732 1015 l 732 382 b 507 156 732 238 651 156 b 283 382 363 156 283 236 l 283 1015 l 106 1015 z "},"Û":{"ha":1015,"x_min":0,"x_max":0,"o":"m 428 1088 l 508 1225 l 588 1088 l 719 1088 l 594 1304 l 421 1304 l 296 1088 z m 106 371 b 507 -17 106 132 261 -17 b 910 371 754 -17 910 133 l 910 1015 l 732 1015 l 732 382 b 507 156 732 238 651 156 b 283 382 363 156 283 236 l 283 1015 l 106 1015 z "},"Ü":{"ha":1015,"x_min":0,"x_max":0,"o":"m 385 1104 b 476 1197 435 1104 476 1146 b 385 1290 476 1247 435 1290 b 292 1197 333 1290 292 1247 b 385 1104 292 1146 333 1104 z m 632 1104 b 724 1197 682 1104 724 1146 b 632 1290 724 1247 682 1290 b 539 1197 581 1290 539 1247 b 632 1104 539 1146 581 1104 z m 106 371 b 507 -17 106 132 261 -17 b 910 371 754 -17 910 133 l 910 1015 l 732 1015 l 732 382 b 507 156 732 238 651 156 b 283 382 363 156 283 236 l 283 1015 l 106 1015 z "},"Ù":{"ha":1015,"x_min":0,"x_max":0,"o":"m 569 1088 l 465 1294 l 308 1294 l 443 1088 z m 106 371 b 507 -17 106 132 261 -17 b 910 371 754 -17 910 133 l 910 1015 l 732 1015 l 732 382 b 507 156 732 238 651 156 b 283 382 363 156 283 236 l 283 1015 l 106 1015 z "},"Ű":{"ha":1015,"x_min":0,"x_max":0,"o":"m 604 1293 l 463 1293 l 350 1088 l 469 1088 z m 818 1293 l 675 1293 l 556 1088 l 676 1088 z m 106 371 b 507 -17 106 132 261 -17 b 910 371 754 -17 910 133 l 910 1015 l 732 1015 l 732 382 b 507 156 732 238 651 156 b 283 382 363 156 283 236 l 283 1015 l 106 1015 z "},"Ū":{"ha":1015,"x_min":0,"x_max":0,"o":"m 322 1139 l 694 1139 l 694 1258 l 322 1258 z m 106 371 b 507 -17 106 132 261 -17 b 910 371 754 -17 910 133 l 910 1015 l 732 1015 l 732 382 b 507 156 732 238 651 156 b 283 382 363 156 283 236 l 283 1015 l 106 1015 z "},"Ų":{"ha":1015,"x_min":0,"x_max":0,"o":"m 106 371 b 501 -17 106 133 258 -14 b 425 -143 450 -49 425 -96 b 563 -272 425 -214 478 -272 b 632 -260 589 -272 611 -269 l 632 -147 b 594 -156 619 -153 606 -156 b 540 -104 561 -156 540 -135 b 635 -1 540 -69 569 -26 b 910 371 807 42 910 178 l 910 1015 l 732 1015 l 732 382 b 507 156 732 238 651 156 b 283 382 363 156 283 236 l 283 1015 l 106 1015 z "},"Ů":{"ha":1015,"x_min":0,"x_max":0,"o":"m 508 1071 b 686 1247 610 1071 686 1147 b 508 1425 686 1347 608 1425 b 329 1247 407 1425 329 1349 b 508 1071 329 1144 404 1071 z m 508 1163 b 426 1250 458 1163 426 1197 b 508 1333 426 1300 460 1333 b 589 1250 556 1333 589 1299 b 508 1163 589 1197 557 1163 z m 106 371 b 507 -17 106 132 261 -17 b 910 371 754 -17 910 133 l 910 1015 l 732 1015 l 732 382 b 507 156 732 238 651 156 b 283 382 363 156 283 236 l 283 1015 l 106 1015 z "},"Ũ":{"ha":1015,"x_min":0,"x_max":0,"o":"m 371 1099 b 418 1181 371 1150 385 1181 b 613 1099 468 1181 517 1099 b 744 1294 701 1099 756 1163 l 644 1294 b 596 1213 644 1244 631 1213 b 399 1294 538 1213 490 1294 b 271 1099 310 1294 258 1218 z m 106 371 b 507 -17 106 132 261 -17 b 910 371 754 -17 910 133 l 910 1015 l 732 1015 l 732 382 b 507 156 732 238 651 156 b 283 382 363 156 283 236 l 283 1015 l 106 1015 z "},"V":{"ha":972,"x_min":0,"x_max":0,"o":"m 397 0 l 581 0 l 958 1015 l 774 1015 l 554 431 b 489 228 535 379 514 317 b 425 431 467 310 447 369 l 203 1015 l 14 1015 z "},"W":{"ha":1438,"x_min":0,"x_max":0,"o":"m 324 0 l 499 0 l 719 739 l 936 0 l 1108 0 l 1417 1015 l 1236 1015 l 1072 478 b 1024 278 1057 426 1043 372 b 975 479 1007 364 992 422 l 818 1015 l 622 1015 l 463 479 b 413 278 444 421 429 368 b 367 479 397 367 382 424 l 206 1015 l 21 1015 z "},"Ẃ":{"ha":1438,"x_min":0,"x_max":0,"o":"m 918 1293 l 761 1293 l 657 1088 l 782 1088 z m 324 0 l 499 0 l 719 739 l 936 0 l 1108 0 l 1417 1015 l 1236 1015 l 1072 478 b 1024 278 1057 426 1043 372 b 975 479 1007 364 992 422 l 818 1015 l 622 1015 l 463 479 b 413 278 444 421 429 368 b 367 479 397 367 382 424 l 206 1015 l 21 1015 z "},"Ŵ":{"ha":1438,"x_min":0,"x_max":0,"o":"m 639 1088 l 719 1225 l 799 1088 l 931 1088 l 806 1304 l 632 1304 l 507 1088 z m 324 0 l 499 0 l 719 739 l 936 0 l 1108 0 l 1417 1015 l 1236 1015 l 1072 478 b 1024 278 1057 426 1043 372 b 975 479 1007 364 992 422 l 818 1015 l 622 1015 l 463 479 b 413 278 444 421 429 368 b 367 479 397 367 382 424 l 206 1015 l 21 1015 z "},"Ẅ":{"ha":1438,"x_min":0,"x_max":0,"o":"m 596 1104 b 688 1197 646 1104 688 1146 b 596 1290 688 1247 646 1290 b 503 1197 544 1290 503 1247 b 596 1104 503 1146 544 1104 z m 843 1104 b 935 1197 893 1104 935 1146 b 843 1290 935 1247 893 1290 b 750 1197 792 1290 750 1247 b 843 1104 750 1146 792 1104 z m 324 0 l 499 0 l 719 739 l 936 0 l 1108 0 l 1417 1015 l 1236 1015 l 1072 478 b 1024 278 1057 426 1043 372 b 975 479 1007 364 992 422 l 818 1015 l 622 1015 l 463 479 b 413 278 444 421 429 368 b 367 479 397 367 382 424 l 206 1015 l 21 1015 z "},"Ẁ":{"ha":1438,"x_min":0,"x_max":0,"o":"m 781 1088 l 676 1294 l 519 1294 l 654 1088 z m 324 0 l 499 0 l 719 739 l 936 0 l 1108 0 l 1417 1015 l 1236 1015 l 1072 478 b 1024 278 1057 426 1043 372 b 975 479 1007 364 992 422 l 818 1015 l 622 1015 l 463 479 b 413 278 444 421 429 368 b 367 479 397 367 382 424 l 206 1015 l 21 1015 z "},"X":{"ha":946,"x_min":0,"x_max":0,"o":"m 368 507 l 24 0 l 232 0 l 479 371 b 600 168 519 297 556 236 l 714 0 l 924 0 l 590 508 l 922 1015 l 715 1015 l 479 643 b 365 833 442 713 407 771 l 242 1015 l 31 1015 z "},"Y":{"ha":890,"x_min":0,"x_max":0,"o":"m 357 400 l 357 0 l 535 0 l 535 400 l 876 1015 l 683 1015 l 485 646 b 449 571 467 613 461 596 b 413 646 438 596 428 618 l 213 1015 l 14 1015 z "},"Ý":{"ha":890,"x_min":0,"x_max":0,"o":"m 647 1293 l 490 1293 l 386 1088 l 511 1088 z m 357 400 l 357 0 l 535 0 l 535 400 l 876 1015 l 683 1015 l 485 646 b 449 571 467 613 461 596 b 413 646 438 596 428 618 l 213 1015 l 14 1015 z "},"Ŷ":{"ha":890,"x_min":0,"x_max":0,"o":"m 368 1088 l 447 1225 l 526 1088 l 660 1088 l 535 1304 l 361 1304 l 235 1088 z m 357 400 l 357 0 l 535 0 l 535 400 l 876 1015 l 683 1015 l 485 646 b 449 571 467 613 461 596 b 413 646 438 596 428 618 l 213 1015 l 14 1015 z "},"Ÿ":{"ha":890,"x_min":0,"x_max":0,"o":"m 324 1104 b 417 1197 374 1104 417 1146 b 324 1290 417 1247 374 1290 b 232 1197 274 1290 232 1247 b 324 1104 232 1146 272 1104 z m 571 1104 b 664 1197 621 1104 664 1146 b 571 1290 664 1247 621 1290 b 479 1197 521 1290 479 1247 b 571 1104 479 1146 519 1104 z m 357 400 l 357 0 l 535 0 l 535 400 l 876 1015 l 683 1015 l 485 646 b 449 571 467 613 461 596 b 413 646 438 596 428 618 l 213 1015 l 14 1015 z "},"Ỳ":{"ha":890,"x_min":0,"x_max":0,"o":"m 508 1088 l 406 1294 l 249 1294 l 383 1088 z m 357 400 l 357 0 l 535 0 l 535 400 l 876 1015 l 683 1015 l 485 646 b 449 571 467 613 461 596 b 413 646 438 596 428 618 l 213 1015 l 14 1015 z "},"Z":{"ha":817,"x_min":0,"x_max":0,"o":"m 774 0 l 774 164 l 260 164 l 765 857 l 765 1015 l 54 1015 l 54 851 l 544 851 l 43 165 l 43 0 z "},"Ź":{"ha":817,"x_min":0,"x_max":0,"o":"m 596 1293 l 439 1293 l 335 1088 l 460 1088 z m 774 0 l 774 164 l 260 164 l 765 857 l 765 1015 l 54 1015 l 54 851 l 544 851 l 43 165 l 43 0 z "},"Ž":{"ha":817,"x_min":0,"x_max":0,"o":"m 310 1088 l 483 1088 l 608 1304 l 476 1304 l 397 1167 l 317 1304 l 185 1304 z m 774 0 l 774 164 l 260 164 l 765 857 l 765 1015 l 54 1015 l 54 851 l 544 851 l 43 165 l 43 0 z "},"Ż":{"ha":817,"x_min":0,"x_max":0,"o":"m 396 1104 b 493 1201 449 1104 493 1149 b 396 1299 493 1253 449 1299 b 300 1201 343 1299 300 1254 b 396 1104 300 1147 342 1104 z m 774 0 l 774 164 l 260 164 l 765 857 l 765 1015 l 54 1015 l 54 851 l 544 851 l 43 165 l 43 0 z "},"a":{"ha":761,"x_min":0,"x_max":0,"o":"m 292 -18 b 521 101 399 -18 492 31 l 533 0 l 682 0 l 682 417 b 383 707 682 607 568 707 b 75 461 197 707 75 610 l 219 461 b 375 575 219 533 275 575 b 517 444 461 575 517 538 l 517 429 l 311 414 b 57 196 149 401 57 322 b 292 -18 57 67 146 -18 z m 347 110 b 229 203 271 110 229 140 b 375 303 229 258 269 293 l 518 314 l 518 278 b 347 110 518 172 451 110 z "},"á":{"ha":761,"x_min":0,"x_max":0,"o":"m 590 974 l 433 974 l 329 768 l 454 768 z m 292 -18 b 521 101 399 -18 492 31 l 533 0 l 682 0 l 682 417 b 383 707 682 607 568 707 b 75 461 197 707 75 610 l 219 461 b 375 575 219 533 275 575 b 517 444 461 575 517 538 l 517 429 l 311 414 b 57 196 149 401 57 322 b 292 -18 57 67 146 -18 z m 347 110 b 229 203 271 110 229 140 b 375 303 229 258 269 293 l 518 314 l 518 278 b 347 110 518 172 451 110 z "},"ă":{"ha":761,"x_min":0,"x_max":0,"o":"m 486 976 b 392 872 486 911 451 872 b 297 976 331 872 297 910 l 174 976 b 392 757 174 842 257 757 b 608 976 524 757 608 842 z m 292 -18 b 521 101 399 -18 492 31 l 533 0 l 682 0 l 682 417 b 383 707 682 607 568 707 b 75 461 197 707 75 610 l 219 461 b 375 575 219 533 275 575 b 517 444 461 575 517 538 l 517 429 l 311 414 b 57 196 149 401 57 322 b 292 -18 57 67 146 -18 z m 347 110 b 229 203 271 110 229 140 b 375 303 229 258 269 293 l 518 314 l 518 278 b 347 110 518 172 451 110 z "},"â":{"ha":761,"x_min":0,"x_max":0,"o":"m 311 768 l 390 906 l 469 768 l 603 768 l 478 985 l 304 985 l 179 768 z m 292 -18 b 521 101 399 -18 492 31 l 533 0 l 682 0 l 682 417 b 383 707 682 607 568 707 b 75 461 197 707 75 610 l 219 461 b 375 575 219 533 275 575 b 517 444 461 575 517 538 l 517 429 l 311 414 b 57 196 149 401 57 322 b 292 -18 57 67 146 -18 z m 347 110 b 229 203 271 110 229 140 b 375 303 229 258 269 293 l 518 314 l 518 278 b 347 110 518 172 451 110 z "},"ä":{"ha":761,"x_min":0,"x_max":0,"o":"m 267 785 b 360 878 317 785 360 826 b 267 971 360 928 317 971 b 175 878 217 971 175 928 b 267 785 175 826 215 785 z m 515 785 b 607 878 565 785 607 826 b 515 971 607 928 565 971 b 422 878 464 971 422 928 b 515 785 422 826 464 785 z m 292 -18 b 521 101 399 -18 492 31 l 533 0 l 682 0 l 682 417 b 383 707 682 607 568 707 b 75 461 197 707 75 610 l 219 461 b 375 575 219 533 275 575 b 517 444 461 575 517 538 l 517 429 l 311 414 b 57 196 149 401 57 322 b 292 -18 57 67 146 -18 z m 347 110 b 229 203 271 110 229 140 b 375 303 229 258 269 293 l 518 314 l 518 278 b 347 110 518 172 451 110 z "},"à":{"ha":761,"x_min":0,"x_max":0,"o":"m 451 768 l 349 975 l 192 975 l 326 768 z m 292 -18 b 521 101 399 -18 492 31 l 533 0 l 682 0 l 682 417 b 383 707 682 607 568 707 b 75 461 197 707 75 610 l 219 461 b 375 575 219 533 275 575 b 517 444 461 575 517 538 l 517 429 l 311 414 b 57 196 149 401 57 322 b 292 -18 57 67 146 -18 z m 347 110 b 229 203 271 110 229 140 b 375 303 229 258 269 293 l 518 314 l 518 278 b 347 110 518 172 451 110 z "},"ā":{"ha":761,"x_min":0,"x_max":0,"o":"m 206 819 l 576 819 l 576 939 l 206 939 z m 292 -18 b 521 101 399 -18 492 31 l 533 0 l 682 0 l 682 417 b 383 707 682 607 568 707 b 75 461 197 707 75 610 l 219 461 b 375 575 219 533 275 575 b 517 444 461 575 517 538 l 517 429 l 311 414 b 57 196 149 401 57 322 b 292 -18 57 67 146 -18 z m 347 110 b 229 203 271 110 229 140 b 375 303 229 258 269 293 l 518 314 l 518 278 b 347 110 518 172 451 110 z "},"ą":{"ha":761,"x_min":0,"x_max":0,"o":"m 292 -18 b 521 101 399 -18 492 31 l 533 0 l 576 0 b 467 -143 501 -29 467 -86 b 604 -272 467 -214 519 -272 b 674 -260 631 -272 653 -269 l 674 -147 b 636 -156 660 -153 647 -156 b 582 -104 603 -156 582 -135 b 681 0 582 -68 611 -25 l 682 0 l 682 417 b 383 707 682 607 568 707 b 75 461 197 707 75 610 l 219 461 b 375 575 219 533 275 575 b 517 444 461 575 517 538 l 517 429 l 311 414 b 57 196 149 401 57 322 b 292 -18 57 67 146 -18 z m 347 110 b 229 203 271 110 229 140 b 375 303 229 258 269 293 l 518 314 l 518 278 b 347 110 518 172 451 110 z "},"å":{"ha":761,"x_min":0,"x_max":0,"o":"m 390 751 b 569 928 493 751 569 828 b 390 1106 569 1028 492 1106 b 213 928 290 1106 213 1029 b 390 751 213 825 288 751 z m 390 843 b 310 931 342 843 310 878 b 390 1014 310 981 343 1014 b 472 931 439 1014 472 979 b 390 843 472 878 440 843 z m 292 -18 b 521 101 399 -18 492 31 l 533 0 l 682 0 l 682 417 b 383 707 682 607 568 707 b 75 461 197 707 75 610 l 219 461 b 375 575 219 533 275 575 b 517 444 461 575 517 538 l 517 429 l 311 414 b 57 196 149 401 57 322 b 292 -18 57 67 146 -18 z m 347 110 b 229 203 271 110 229 140 b 375 303 229 258 269 293 l 518 314 l 518 278 b 347 110 518 172 451 110 z "},"ǻ":{"ha":761,"x_min":0,"x_max":0,"o":"m 574 1175 l 428 1175 l 331 992 l 447 992 z m 292 -18 b 521 101 399 -18 492 31 l 533 0 l 682 0 l 682 417 b 528 681 682 550 625 640 b 565 792 551 711 565 749 b 386 969 565 892 488 969 b 208 792 286 969 208 892 b 242 685 208 750 221 714 b 75 461 138 647 75 568 l 219 461 b 375 575 219 533 275 575 b 517 444 461 575 517 538 l 517 429 l 311 414 b 57 196 149 401 57 322 b 292 -18 57 67 146 -18 z m 386 707 b 306 793 338 707 306 742 b 386 878 306 843 339 878 b 468 793 435 878 468 842 b 386 707 468 742 436 707 z m 347 110 b 229 203 271 110 229 140 b 375 303 229 258 269 293 l 518 314 l 518 278 b 347 110 518 172 451 110 z "},"ã":{"ha":761,"x_min":0,"x_max":0,"o":"m 254 779 b 301 861 254 831 268 861 b 496 779 351 861 400 779 b 628 975 585 779 639 843 l 528 975 b 479 893 528 925 514 893 b 282 975 421 893 374 975 b 154 779 193 975 142 899 z m 292 -18 b 521 101 399 -18 492 31 l 533 0 l 682 0 l 682 417 b 383 707 682 607 568 707 b 75 461 197 707 75 610 l 219 461 b 375 575 219 533 275 575 b 517 444 461 575 517 538 l 517 429 l 311 414 b 57 196 149 401 57 322 b 292 -18 57 67 146 -18 z m 347 110 b 229 203 271 110 229 140 b 375 303 229 258 269 293 l 518 314 l 518 278 b 347 110 518 172 451 110 z "},"æ":{"ha":1235,"x_min":0,"x_max":0,"o":"m 57 197 b 303 -18 57 67 144 -18 b 575 128 428 -18 526 35 b 856 -18 633 36 732 -18 b 1188 222 1036 -18 1158 75 l 1031 222 b 858 121 1014 160 954 121 b 668 303 742 121 682 192 l 1186 304 l 1186 356 b 850 707 1186 564 1060 707 b 608 606 750 707 667 671 b 374 707 565 669 488 707 b 75 461 196 707 75 608 l 219 461 b 371 575 219 532 274 575 b 517 444 463 575 517 532 l 517 411 l 310 406 b 57 197 158 403 57 332 z m 851 568 b 1018 410 957 568 1018 501 l 669 410 b 851 568 686 504 744 568 z m 229 206 b 361 299 229 271 269 296 l 518 304 l 518 265 b 349 110 518 172 454 110 b 229 206 275 110 229 143 z "},"ǽ":{"ha":1235,"x_min":0,"x_max":0,"o":"m 801 974 l 644 974 l 540 768 l 665 768 z m 57 197 b 303 -18 57 67 144 -18 b 575 128 428 -18 526 35 b 856 -18 633 36 732 -18 b 1188 222 1036 -18 1158 75 l 1031 222 b 858 121 1014 160 954 121 b 668 303 742 121 682 192 l 1186 304 l 1186 356 b 850 707 1186 564 1060 707 b 608 606 750 707 667 671 b 374 707 565 669 488 707 b 75 461 196 707 75 608 l 219 461 b 371 575 219 532 274 575 b 517 444 463 575 517 532 l 517 411 l 310 406 b 57 197 158 403 57 332 z m 851 568 b 1018 410 957 568 1018 501 l 669 410 b 851 568 686 504 744 568 z m 229 206 b 361 299 229 271 269 296 l 518 304 l 518 265 b 349 110 518 172 454 110 b 229 206 275 110 229 143 z "},"b":{"ha":860,"x_min":0,"x_max":0,"o":"m 244 0 l 256 107 b 486 -18 296 28 383 -18 b 813 339 683 -18 813 128 b 497 708 813 556 693 708 b 257 586 393 708 301 663 l 257 1033 l 88 1033 l 88 0 z m 258 346 b 451 556 258 469 335 556 b 642 346 571 556 642 468 b 451 138 642 224 571 138 b 258 346 335 138 258 222 z "},"c":{"ha":764,"x_min":0,"x_max":0,"o":"m 47 344 b 392 -18 47 126 183 -18 b 725 251 571 -18 704 92 l 554 251 b 392 135 536 176 476 135 b 217 344 283 135 217 215 b 397 556 217 474 289 556 b 554 438 478 556 535 515 l 724 438 b 390 707 706 603 578 707 b 47 344 188 707 47 557 z "},"ć":{"ha":764,"x_min":0,"x_max":0,"o":"m 586 974 l 429 974 l 325 768 l 450 768 z m 47 344 b 392 -18 47 126 183 -18 b 725 251 571 -18 704 92 l 554 251 b 392 135 536 176 476 135 b 217 344 283 135 217 215 b 397 556 217 474 289 556 b 554 438 478 556 535 515 l 724 438 b 390 707 706 603 578 707 b 47 344 188 707 47 557 z "},"č":{"ha":764,"x_min":0,"x_max":0,"o":"m 300 768 l 474 768 l 599 985 l 467 985 l 388 847 l 307 985 l 175 985 z m 47 344 b 392 -18 47 126 183 -18 b 725 251 571 -18 704 92 l 554 251 b 392 135 536 176 476 135 b 217 344 283 135 217 215 b 397 556 217 474 289 556 b 554 438 478 556 535 515 l 724 438 b 390 707 706 603 578 707 b 47 344 188 707 47 557 z "},"ç":{"ha":764,"x_min":0,"x_max":0,"o":"m 47 344 b 349 -17 47 142 165 3 l 317 -85 l 333 -132 b 401 -119 356 -124 375 -119 b 460 -167 438 -119 460 -136 b 388 -219 460 -199 435 -219 b 294 -194 353 -219 326 -210 l 294 -272 b 397 -296 324 -287 354 -296 b 554 -165 483 -296 554 -251 b 443 -57 554 -89 497 -57 b 397 -64 426 -57 411 -60 l 421 -17 b 725 251 585 -6 706 100 l 554 251 b 392 135 536 176 476 135 b 217 344 283 135 217 215 b 397 556 217 474 289 556 b 554 438 478 556 535 515 l 724 438 b 390 707 706 603 578 707 b 47 344 188 707 47 557 z "},"ĉ":{"ha":764,"x_min":0,"x_max":0,"o":"m 307 768 l 388 906 l 467 768 l 599 768 l 474 985 l 300 985 l 175 768 z m 47 344 b 392 -18 47 126 183 -18 b 725 251 571 -18 704 92 l 554 251 b 392 135 536 176 476 135 b 217 344 283 135 217 215 b 397 556 217 474 289 556 b 554 438 478 556 535 515 l 724 438 b 390 707 706 603 578 707 b 47 344 188 707 47 557 z "},"ċ":{"ha":764,"x_min":0,"x_max":0,"o":"m 386 785 b 483 882 439 785 483 829 b 386 979 483 933 439 979 b 290 882 333 979 290 935 b 386 785 290 828 333 785 z m 47 344 b 392 -18 47 126 183 -18 b 725 251 571 -18 704 92 l 554 251 b 392 135 536 176 476 135 b 217 344 283 135 217 215 b 397 556 217 474 289 556 b 554 438 478 556 535 515 l 724 438 b 390 707 706 603 578 707 b 47 344 188 707 47 557 z "},"d":{"ha":860,"x_min":0,"x_max":0,"o":"m 369 -18 b 604 107 474 -18 563 28 l 615 0 l 771 0 l 771 1033 l 603 1033 l 603 599 b 379 707 560 667 475 707 b 47 340 172 707 47 554 b 369 -18 47 128 171 -18 z m 407 138 b 217 346 289 138 217 224 b 407 556 217 468 289 556 b 601 346 525 556 601 469 b 407 138 601 222 525 138 z "},"ð":{"ha":828,"x_min":0,"x_max":0,"o":"m 47 339 b 413 -18 47 131 192 -18 b 781 381 619 -18 781 121 b 601 888 781 560 721 728 l 681 919 l 642 1014 l 535 969 b 474 1033 514 992 494 1013 l 279 1033 b 390 911 321 993 357 953 l 250 854 l 288 760 l 457 828 b 579 619 511 756 549 689 b 394 682 529 663 467 682 b 47 339 207 682 47 543 z m 217 332 b 414 531 217 442 289 531 b 607 332 538 531 607 443 b 413 135 607 221 536 135 b 217 332 289 135 217 222 z "},"ď":{"ha":860,"x_min":0,"x_max":0,"o":"m 369 -18 b 604 107 474 -18 563 28 l 615 0 l 771 0 l 771 1033 l 603 1033 l 603 599 b 379 707 560 667 475 707 b 47 340 172 707 47 554 b 369 -18 47 128 171 -18 z m 840 783 l 944 783 l 981 1033 l 840 1033 z m 407 138 b 217 346 289 138 217 224 b 407 556 217 468 289 556 b 601 346 525 556 601 469 b 407 138 601 222 525 138 z "},"đ":{"ha":860,"x_min":0,"x_max":0,"o":"m 369 -18 b 604 107 474 -18 563 28 l 615 0 l 771 0 l 771 801 l 860 801 l 860 904 l 771 904 l 771 1033 l 603 1033 l 603 904 l 385 904 l 385 801 l 603 801 l 603 599 b 379 707 560 667 475 707 b 47 340 172 707 47 554 b 369 -18 47 128 171 -18 z m 407 138 b 217 346 289 138 217 224 b 407 556 217 468 289 556 b 601 346 525 556 601 469 b 407 138 601 222 525 138 z "},"e":{"ha":774,"x_min":0,"x_max":0,"o":"m 394 -18 b 728 222 574 -18 699 72 l 571 222 b 397 121 551 157 490 121 b 208 303 285 121 221 182 l 725 304 l 725 356 b 389 707 725 569 594 707 b 47 343 188 707 47 558 b 394 -18 47 131 190 -18 z m 390 568 b 557 411 492 568 557 506 l 213 411 b 390 568 229 514 290 568 z "},"é":{"ha":774,"x_min":0,"x_max":0,"o":"m 592 974 l 435 974 l 331 768 l 456 768 z m 394 -18 b 728 222 574 -18 699 72 l 571 222 b 397 121 551 157 490 121 b 208 303 285 121 221 182 l 725 304 l 725 356 b 389 707 725 569 594 707 b 47 343 188 707 47 558 b 394 -18 47 131 190 -18 z m 390 568 b 557 411 492 568 557 506 l 213 411 b 390 568 229 514 290 568 z "},"ĕ":{"ha":774,"x_min":0,"x_max":0,"o":"m 488 976 b 393 872 488 911 454 872 b 299 976 332 872 299 910 l 175 976 b 393 757 175 842 258 757 b 610 976 525 757 610 842 z m 394 -18 b 728 222 574 -18 699 72 l 571 222 b 397 121 551 157 490 121 b 208 303 285 121 221 182 l 725 304 l 725 356 b 389 707 725 569 594 707 b 47 343 188 707 47 558 b 394 -18 47 131 190 -18 z m 390 568 b 557 411 492 568 557 506 l 213 411 b 390 568 229 514 290 568 z "},"ě":{"ha":774,"x_min":0,"x_max":0,"o":"m 306 768 l 479 768 l 604 985 l 472 985 l 393 847 l 313 985 l 181 985 z m 394 -18 b 728 222 574 -18 699 72 l 571 222 b 397 121 551 157 490 121 b 208 303 285 121 221 182 l 725 304 l 725 356 b 389 707 725 569 594 707 b 47 343 188 707 47 558 b 394 -18 47 131 190 -18 z m 390 568 b 557 411 492 568 557 506 l 213 411 b 390 568 229 514 290 568 z "},"ê":{"ha":774,"x_min":0,"x_max":0,"o":"m 313 768 l 393 906 l 472 768 l 604 768 l 479 985 l 306 985 l 181 768 z m 394 -18 b 728 222 574 -18 699 72 l 571 222 b 397 121 551 157 490 121 b 208 303 285 121 221 182 l 725 304 l 725 356 b 389 707 725 569 594 707 b 47 343 188 707 47 558 b 394 -18 47 131 190 -18 z m 390 568 b 557 411 492 568 557 506 l 213 411 b 390 568 229 514 290 568 z "},"ë":{"ha":774,"x_min":0,"x_max":0,"o":"m 268 785 b 361 878 318 785 361 826 b 268 971 361 928 318 971 b 176 878 218 971 176 928 b 268 785 176 826 217 785 z m 517 785 b 608 878 567 785 608 826 b 517 971 608 928 567 971 b 424 878 465 971 424 928 b 517 785 424 826 465 785 z m 394 -18 b 728 222 574 -18 699 72 l 571 222 b 397 121 551 157 490 121 b 208 303 285 121 221 182 l 725 304 l 725 356 b 389 707 725 569 594 707 b 47 343 188 707 47 558 b 394 -18 47 131 190 -18 z m 390 568 b 557 411 492 568 557 506 l 213 411 b 390 568 229 514 290 568 z "},"ė":{"ha":774,"x_min":0,"x_max":0,"o":"m 392 785 b 489 882 444 785 489 829 b 392 979 489 933 444 979 b 296 882 339 979 296 935 b 392 785 296 828 338 785 z m 394 -18 b 728 222 574 -18 699 72 l 571 222 b 397 121 551 157 490 121 b 208 303 285 121 221 182 l 725 304 l 725 356 b 389 707 725 569 594 707 b 47 343 188 707 47 558 b 394 -18 47 131 190 -18 z m 390 568 b 557 411 492 568 557 506 l 213 411 b 390 568 229 514 290 568 z "},"è":{"ha":774,"x_min":0,"x_max":0,"o":"m 453 768 l 350 975 l 193 975 l 328 768 z m 394 -18 b 728 222 574 -18 699 72 l 571 222 b 397 121 551 157 490 121 b 208 303 285 121 221 182 l 725 304 l 725 356 b 389 707 725 569 594 707 b 47 343 188 707 47 558 b 394 -18 47 131 190 -18 z m 390 568 b 557 411 492 568 557 506 l 213 411 b 390 568 229 514 290 568 z "},"ē":{"ha":774,"x_min":0,"x_max":0,"o":"m 207 819 l 578 819 l 578 939 l 207 939 z m 394 -18 b 728 222 574 -18 699 72 l 571 222 b 397 121 551 157 490 121 b 208 303 285 121 221 182 l 725 304 l 725 356 b 389 707 725 569 594 707 b 47 343 188 707 47 558 b 394 -18 47 131 190 -18 z m 390 568 b 557 411 492 568 557 506 l 213 411 b 390 568 229 514 290 568 z "},"ę":{"ha":774,"x_min":0,"x_max":0,"o":"m 514 -260 l 514 -147 b 476 -156 500 -153 488 -156 b 422 -104 443 -156 422 -135 b 513 -3 422 -69 449 -28 b 728 222 628 28 706 108 l 571 222 b 397 121 551 157 490 121 b 208 303 285 121 221 182 l 725 304 l 725 356 b 389 707 725 569 594 707 b 47 343 188 707 47 558 b 381 -18 47 135 183 -11 b 307 -143 331 -49 307 -96 b 444 -272 307 -214 360 -272 b 514 -260 471 -272 493 -269 z m 390 568 b 557 411 492 568 557 506 l 213 411 b 390 568 229 514 290 568 z "},"f":{"ha":471,"x_min":0,"x_max":0,"o":"m 19 686 l 19 544 l 118 544 l 118 0 l 286 0 l 286 544 l 450 544 l 450 686 l 286 686 l 286 769 b 393 882 286 838 307 882 l 453 882 l 453 1026 b 365 1033 424 1032 392 1033 b 118 769 217 1033 118 956 l 118 686 z "},"g":{"ha":853,"x_min":0,"x_max":0,"o":"m 49 358 b 371 14 49 160 176 14 b 597 118 469 14 554 54 l 597 4 b 406 -183 597 -110 522 -183 b 222 -42 301 -183 233 -131 l 53 -42 b 406 -337 74 -225 208 -337 b 765 35 628 -337 765 -194 l 765 686 l 608 686 l 599 592 b 375 708 558 665 478 708 b 49 358 179 708 49 558 z m 219 363 b 404 560 219 475 292 560 b 593 363 522 560 593 479 b 404 161 593 243 521 161 b 219 363 293 161 219 247 z "},"ğ":{"ha":853,"x_min":0,"x_max":0,"o":"m 492 982 b 397 878 492 915 457 878 b 303 982 336 878 303 915 l 179 982 b 397 763 179 846 263 763 b 614 982 529 763 614 847 z m 49 358 b 371 14 49 160 176 14 b 597 118 469 14 554 54 l 597 4 b 406 -183 597 -110 522 -183 b 222 -42 301 -183 233 -131 l 53 -42 b 406 -337 74 -225 208 -337 b 765 35 628 -337 765 -194 l 765 686 l 608 686 l 599 592 b 375 708 558 665 478 708 b 49 358 179 708 49 558 z m 219 363 b 404 560 219 475 292 560 b 593 363 522 560 593 479 b 404 161 593 243 521 161 b 219 363 293 161 219 247 z "},"ĝ":{"ha":853,"x_min":0,"x_max":0,"o":"m 317 774 l 396 911 l 475 774 l 608 774 l 483 989 l 310 989 l 185 774 z m 49 358 b 371 14 49 160 176 14 b 597 118 469 14 554 54 l 597 4 b 406 -183 597 -110 522 -183 b 222 -42 301 -183 233 -131 l 53 -42 b 406 -337 74 -225 208 -337 b 765 35 628 -337 765 -194 l 765 686 l 608 686 l 599 592 b 375 708 558 665 478 708 b 49 358 179 708 49 558 z m 219 363 b 404 560 219 475 292 560 b 593 363 522 560 593 479 b 404 161 593 243 521 161 b 219 363 293 161 219 247 z "},"ģ":{"ha":853,"x_min":0,"x_max":0,"o":"m 478 871 b 403 949 478 915 447 949 b 369 942 390 949 379 946 b 465 996 372 982 406 1001 l 465 1051 b 299 896 361 1064 299 993 b 390 788 299 829 335 788 b 478 871 443 788 478 821 z m 49 358 b 371 14 49 160 176 14 b 597 118 469 14 554 54 l 597 4 b 406 -183 597 -110 522 -183 b 222 -42 301 -183 233 -131 l 53 -42 b 406 -337 74 -225 208 -337 b 765 35 628 -337 765 -194 l 765 686 l 608 686 l 599 592 b 375 708 558 665 478 708 b 49 358 179 708 49 558 z m 219 363 b 404 560 219 475 292 560 b 593 363 522 560 593 479 b 404 161 593 243 521 161 b 219 363 293 161 219 247 z "},"ġ":{"ha":853,"x_min":0,"x_max":0,"o":"m 396 790 b 493 886 449 790 493 833 b 396 985 493 939 449 985 b 299 886 343 985 299 940 b 396 790 299 833 342 790 z m 49 358 b 371 14 49 160 176 14 b 597 118 469 14 554 54 l 597 4 b 406 -183 597 -110 522 -183 b 222 -42 301 -183 233 -131 l 53 -42 b 406 -337 74 -225 208 -337 b 765 35 628 -337 765 -194 l 765 686 l 608 686 l 599 592 b 375 708 558 665 478 708 b 49 358 179 708 49 558 z m 219 363 b 404 560 219 475 292 560 b 593 363 522 560 593 479 b 404 161 593 243 521 161 b 219 363 293 161 219 247 z "},"h":{"ha":818,"x_min":0,"x_max":0,"o":"m 257 0 l 257 375 b 426 553 257 478 319 553 b 569 382 513 553 569 497 l 569 0 l 739 0 l 739 422 b 481 707 739 600 650 707 b 258 597 382 707 301 664 l 258 1033 l 88 1033 l 88 0 z "},"ħ":{"ha":818,"x_min":0,"x_max":0,"o":"m 257 0 l 257 375 b 426 553 257 478 319 553 b 569 382 513 553 569 497 l 569 0 l 739 0 l 739 422 b 481 707 739 600 650 707 b 258 597 382 707 301 664 l 258 801 l 475 801 l 475 904 l 258 904 l 258 1033 l 88 1033 l 88 904 l 0 904 l 0 801 l 88 801 l 88 0 z "},"i":{"ha":344,"x_min":0,"x_max":0,"o":"m 172 824 b 274 926 228 824 274 869 b 172 1028 274 983 228 1028 b 68 926 114 1028 68 983 b 172 824 68 869 114 824 z m 88 0 l 257 0 l 257 686 l 88 686 z "},"í":{"ha":344,"x_min":0,"x_max":0,"o":"m 372 974 l 215 974 l 111 768 l 238 768 z m 88 0 l 257 0 l 257 686 l 88 686 z "},"î":{"ha":344,"x_min":0,"x_max":0,"o":"m 94 768 l 174 906 l 253 768 l 386 768 l 260 985 l 86 985 l -39 768 z m 88 0 l 257 0 l 257 686 l 88 686 z "},"ï":{"ha":344,"x_min":0,"x_max":0,"o":"m 50 785 b 142 878 100 785 142 826 b 50 971 142 928 100 971 b -43 878 0 971 -43 928 b 50 785 -43 826 -1 785 z m 297 785 b 390 878 347 785 390 826 b 297 971 390 928 347 971 b 206 878 247 971 206 928 b 297 785 206 826 246 785 z m 88 0 l 257 0 l 257 686 l 88 686 z "},"ì":{"ha":344,"x_min":0,"x_max":0,"o":"m 235 768 l 131 975 l -26 975 l 110 768 z m 88 0 l 257 0 l 257 686 l 88 686 z "},"ī":{"ha":344,"x_min":0,"x_max":0,"o":"m -12 819 l 360 819 l 360 939 l -12 939 z m 88 0 l 257 0 l 257 686 l 88 686 z "},"į":{"ha":344,"x_min":0,"x_max":0,"o":"m 172 824 b 274 926 228 824 274 869 b 172 1028 274 983 228 1028 b 68 926 114 1028 68 983 b 172 824 68 869 114 824 z m 88 0 l 153 0 b 42 -143 78 -29 42 -86 b 179 -272 42 -214 94 -272 b 249 -260 206 -272 228 -269 l 249 -147 b 211 -156 236 -153 222 -156 b 157 -104 178 -156 157 -135 b 256 0 157 -68 188 -25 l 257 0 l 257 686 l 88 686 z "},"ĩ":{"ha":344,"x_min":0,"x_max":0,"o":"m 36 779 b 83 861 36 831 50 861 b 278 779 135 861 182 779 b 410 975 367 779 421 843 l 310 975 b 261 893 310 925 296 893 b 64 975 203 893 157 975 b -64 779 -24 975 -76 899 z m 88 0 l 257 0 l 257 686 l 88 686 z "},"j":{"ha":344,"x_min":0,"x_max":0,"o":"m 172 824 b 275 926 228 824 275 869 b 172 1028 275 983 228 1028 b 69 926 115 1028 69 983 b 172 824 69 869 115 824 z m -76 -322 b 25 -337 -32 -335 -7 -337 b 257 -97 174 -337 257 -243 l 257 686 l 88 686 l 88 -78 b 10 -181 88 -147 68 -181 b -49 -172 -11 -181 -25 -179 z "},"ĵ":{"ha":344,"x_min":0,"x_max":0,"o":"m 94 768 l 175 906 l 254 768 l 386 768 l 261 985 l 88 985 l -37 768 z m -76 -322 b 25 -337 -32 -335 -7 -337 b 257 -97 174 -337 257 -243 l 257 686 l 88 686 l 88 -78 b 10 -181 88 -147 68 -181 b -49 -172 -11 -181 -25 -179 z "},"k":{"ha":747,"x_min":0,"x_max":0,"o":"m 258 0 l 258 185 l 358 289 l 538 0 l 732 0 l 476 414 l 738 686 l 525 686 l 258 399 l 258 1033 l 90 1033 l 90 0 z "},"ķ":{"ha":747,"x_min":0,"x_max":0,"o":"m 258 0 l 258 185 l 358 289 l 538 0 l 732 0 l 476 414 l 738 686 l 525 686 l 258 399 l 258 1033 l 90 1033 l 90 0 z m 468 -157 b 375 -49 468 -90 431 -49 b 288 -132 324 -49 288 -82 b 364 -211 288 -176 318 -211 b 396 -203 375 -211 386 -208 b 300 -257 393 -244 361 -262 l 300 -312 b 468 -157 406 -325 468 -254 z "},"l":{"ha":349,"x_min":0,"x_max":0,"o":"m 258 0 l 258 1033 l 90 1033 l 90 0 z "},"ĺ":{"ha":349,"x_min":0,"x_max":0,"o":"m 374 1289 l 217 1289 l 113 1083 l 238 1083 z m 258 0 l 258 1033 l 90 1033 l 90 0 z "},"ľ":{"ha":349,"x_min":0,"x_max":0,"o":"m 258 0 l 258 1033 l 90 1033 l 90 0 z m 328 783 l 432 783 l 468 1033 l 328 1033 z "},"ļ":{"ha":349,"x_min":0,"x_max":0,"o":"m 258 0 l 258 1033 l 90 1033 l 90 0 z m 263 -157 b 169 -49 263 -90 225 -49 b 82 -132 118 -49 82 -82 b 158 -211 82 -176 114 -211 b 190 -203 169 -211 181 -208 b 94 -257 188 -244 156 -262 l 94 -312 b 263 -157 200 -325 263 -254 z "},"ŀ":{"ha":532,"x_min":0,"x_max":0,"o":"m 258 0 l 258 1033 l 90 1033 l 90 0 z m 442 407 b 539 504 494 407 539 451 b 442 603 539 557 493 603 b 342 504 386 603 342 558 b 442 407 342 451 386 407 z "},"ł":{"ha":349,"x_min":0,"x_max":0,"o":"m 258 0 l 258 515 l 335 551 l 335 672 l 258 636 l 258 1033 l 90 1033 l 90 556 l 15 519 l 15 399 l 90 435 l 90 0 z "},"m":{"ha":1229,"x_min":0,"x_max":0,"o":"m 257 0 l 257 389 b 403 553 257 500 322 553 b 535 406 483 553 535 501 l 535 0 l 704 0 l 704 389 b 849 554 704 501 767 554 b 982 404 929 554 982 503 l 982 0 l 1150 0 l 1150 449 b 892 707 1150 607 1058 707 b 672 576 788 707 707 656 b 460 707 636 656 564 707 b 257 606 361 707 292 663 l 243 686 l 88 686 l 88 0 z "},"n":{"ha":818,"x_min":0,"x_max":0,"o":"m 257 0 l 257 369 b 425 553 257 481 321 553 b 569 382 513 553 569 497 l 569 0 l 739 0 l 739 422 b 478 707 739 600 650 707 b 258 597 385 707 301 667 l 244 686 l 88 686 l 88 0 z "},"ń":{"ha":818,"x_min":0,"x_max":0,"o":"m 621 974 l 464 974 l 360 768 l 485 768 z m 257 0 l 257 369 b 425 553 257 481 321 553 b 569 382 513 553 569 497 l 569 0 l 739 0 l 739 422 b 478 707 739 600 650 707 b 258 597 385 707 301 667 l 244 686 l 88 686 l 88 0 z "},"ň":{"ha":818,"x_min":0,"x_max":0,"o":"m 335 768 l 508 768 l 633 985 l 500 985 l 421 847 l 342 985 l 210 985 z m 257 0 l 257 369 b 425 553 257 481 321 553 b 569 382 513 553 569 497 l 569 0 l 739 0 l 739 422 b 478 707 739 600 650 707 b 258 597 385 707 301 667 l 244 686 l 88 686 l 88 0 z "},"ņ":{"ha":818,"x_min":0,"x_max":0,"o":"m 257 0 l 257 369 b 425 553 257 481 321 553 b 569 382 513 553 569 497 l 569 0 l 739 0 l 739 422 b 478 707 739 600 650 707 b 258 597 385 707 301 667 l 244 686 l 88 686 l 88 0 z m 501 -157 b 408 -49 501 -90 464 -49 b 321 -132 356 -49 321 -82 b 396 -211 321 -176 351 -211 b 429 -203 408 -211 419 -208 b 333 -257 426 -244 394 -262 l 333 -312 b 501 -157 438 -325 501 -254 z "},"ŋ":{"ha":818,"x_min":0,"x_max":0,"o":"m 257 0 l 257 369 b 425 553 257 481 321 553 b 569 382 513 553 569 497 l 569 -78 b 492 -181 569 -147 549 -181 b 433 -172 469 -181 457 -179 l 406 -322 b 507 -337 449 -335 474 -337 b 739 -97 654 -337 739 -243 l 739 422 b 478 707 739 600 650 707 b 258 597 385 707 301 667 l 244 686 l 88 686 l 88 0 z "},"ñ":{"ha":818,"x_min":0,"x_max":0,"o":"m 285 779 b 332 861 285 831 299 861 b 526 779 382 861 431 779 b 658 975 615 779 669 843 l 558 975 b 510 893 558 925 544 893 b 313 975 451 893 404 975 b 185 779 224 975 172 899 z m 257 0 l 257 369 b 425 553 257 481 321 553 b 569 382 513 553 569 497 l 569 0 l 739 0 l 739 422 b 478 707 739 600 650 707 b 258 597 385 707 301 667 l 244 686 l 88 686 l 88 0 z "},"o":{"ha":828,"x_min":0,"x_max":0,"o":"m 47 344 b 414 -17 47 131 201 -17 b 781 344 626 -17 781 131 b 414 706 781 558 626 706 b 47 344 201 706 47 558 z m 217 344 b 414 554 217 469 297 554 b 611 344 531 554 611 469 b 414 135 611 219 531 135 b 217 344 297 135 217 219 z "},"ó":{"ha":828,"x_min":0,"x_max":0,"o":"m 614 974 l 457 974 l 353 768 l 478 768 z m 47 344 b 414 -17 47 131 201 -17 b 781 344 626 -17 781 131 b 414 706 781 558 626 706 b 47 344 201 706 47 558 z m 217 344 b 414 554 217 469 297 554 b 611 344 531 554 611 469 b 414 135 611 219 531 135 b 217 344 297 135 217 219 z "},"ô":{"ha":828,"x_min":0,"x_max":0,"o":"m 335 768 l 414 906 l 493 768 l 626 768 l 501 985 l 328 985 l 201 768 z m 47 344 b 414 -17 47 131 201 -17 b 781 344 626 -17 781 131 b 414 706 781 558 626 706 b 47 344 201 706 47 558 z m 217 344 b 414 554 217 469 297 554 b 611 344 531 554 611 469 b 414 135 611 219 531 135 b 217 344 297 135 217 219 z "},"ö":{"ha":828,"x_min":0,"x_max":0,"o":"m 290 785 b 383 878 340 785 383 826 b 290 971 383 928 340 971 b 199 878 240 971 199 928 b 290 785 199 826 239 785 z m 538 785 b 631 878 588 785 631 826 b 538 971 631 928 588 971 b 446 878 488 971 446 928 b 538 785 446 826 486 785 z m 47 344 b 414 -17 47 131 201 -17 b 781 344 626 -17 781 131 b 414 706 781 558 626 706 b 47 344 201 706 47 558 z m 217 344 b 414 554 217 469 297 554 b 611 344 531 554 611 469 b 414 135 611 219 531 135 b 217 344 297 135 217 219 z "},"ò":{"ha":828,"x_min":0,"x_max":0,"o":"m 475 768 l 372 975 l 215 975 l 350 768 z m 47 344 b 414 -17 47 131 201 -17 b 781 344 626 -17 781 131 b 414 706 781 558 626 706 b 47 344 201 706 47 558 z m 217 344 b 414 554 217 469 297 554 b 611 344 531 554 611 469 b 414 135 611 219 531 135 b 217 344 297 135 217 219 z "},"ő":{"ha":828,"x_min":0,"x_max":0,"o":"m 511 974 l 369 974 l 256 768 l 375 768 z m 725 974 l 582 974 l 463 768 l 582 768 z m 47 344 b 414 -17 47 131 201 -17 b 781 344 626 -17 781 131 b 414 706 781 558 626 706 b 47 344 201 706 47 558 z m 217 344 b 414 554 217 469 297 554 b 611 344 531 554 611 469 b 414 135 611 219 531 135 b 217 344 297 135 217 219 z "},"ō":{"ha":828,"x_min":0,"x_max":0,"o":"m 228 819 l 600 819 l 600 939 l 228 939 z m 47 344 b 414 -17 47 131 201 -17 b 781 344 626 -17 781 131 b 414 706 781 558 626 706 b 47 344 201 706 47 558 z m 217 344 b 414 554 217 469 297 554 b 611 344 531 554 611 469 b 414 135 611 219 531 135 b 217 344 297 135 217 219 z "},"ø":{"ha":828,"x_min":0,"x_max":0,"o":"m 47 344 b 171 67 47 228 93 131 l 86 -69 l 239 -69 l 283 4 b 414 -17 324 -10 368 -17 b 781 344 626 -17 781 131 b 663 618 781 460 736 554 l 742 747 l 594 747 l 554 682 b 414 706 511 697 464 706 b 47 344 201 706 47 558 z m 217 344 b 414 554 217 469 297 554 b 469 547 433 554 453 551 l 258 208 b 217 344 232 243 217 290 z m 611 344 b 414 135 611 219 531 135 b 368 139 397 135 382 136 l 574 475 b 611 344 597 440 611 396 z "},"ǿ":{"ha":828,"x_min":0,"x_max":0,"o":"m 614 974 l 457 974 l 353 768 l 478 768 z m 47 344 b 171 67 47 228 93 131 l 86 -69 l 239 -69 l 283 4 b 414 -17 324 -10 368 -17 b 781 344 626 -17 781 131 b 663 618 781 460 736 554 l 742 747 l 594 747 l 554 682 b 414 706 511 697 464 706 b 47 344 201 706 47 558 z m 217 344 b 414 554 217 469 297 554 b 469 547 433 554 453 551 l 258 208 b 217 344 232 243 217 290 z m 611 344 b 414 135 611 219 531 135 b 368 139 397 135 382 136 l 574 475 b 611 344 597 440 611 396 z "},"õ":{"ha":828,"x_min":0,"x_max":0,"o":"m 278 779 b 325 861 278 831 292 861 b 519 779 375 861 424 779 b 651 975 608 779 663 843 l 551 975 b 503 893 551 925 538 893 b 306 975 443 893 397 975 b 178 779 217 975 165 899 z m 47 344 b 414 -17 47 131 201 -17 b 781 344 626 -17 781 131 b 414 706 781 558 626 706 b 47 344 201 706 47 558 z m 217 344 b 414 554 217 469 297 554 b 611 344 531 554 611 469 b 414 135 611 219 531 135 b 217 344 297 135 217 219 z "},"œ":{"ha":1344,"x_min":0,"x_max":0,"o":"m 47 344 b 414 -17 47 131 201 -17 b 693 108 533 -17 631 29 b 965 -18 756 29 850 -18 b 1299 222 1144 -18 1269 72 l 1142 222 b 969 121 1124 157 1061 121 b 779 303 856 121 792 182 l 1296 304 l 1296 356 b 961 707 1296 569 1165 707 b 693 582 847 707 754 660 b 414 706 631 660 532 706 b 47 344 201 706 47 558 z m 961 568 b 1128 411 1063 568 1128 506 l 783 411 b 961 568 800 514 861 568 z m 217 344 b 414 554 217 469 297 554 b 611 344 531 554 611 469 b 414 135 611 219 531 135 b 217 344 297 135 217 219 z "},"p":{"ha":860,"x_min":0,"x_max":0,"o":"m 88 -318 l 257 -318 l 257 92 b 492 -18 300 22 389 -18 b 813 351 696 -18 813 138 b 492 707 813 567 685 707 b 256 582 388 707 297 661 l 244 686 l 88 686 z m 258 343 b 451 553 258 467 335 553 b 642 343 571 553 642 465 b 451 135 642 221 571 135 b 258 343 335 135 258 219 z "},"þ":{"ha":860,"x_min":0,"x_max":0,"o":"m 813 349 b 497 708 813 563 690 708 b 257 586 393 708 301 663 l 257 1033 l 88 1033 l 88 -318 l 257 -318 l 257 92 b 492 -18 300 22 389 -18 b 813 349 696 -18 813 136 z m 642 346 b 451 135 642 224 571 135 b 258 346 335 135 258 222 b 451 556 258 469 335 556 b 642 346 571 556 642 468 z "},"q":{"ha":860,"x_min":0,"x_max":0,"o":"m 47 351 b 368 -18 47 138 164 -18 b 603 92 469 -18 560 22 l 603 -318 l 771 -318 l 771 686 l 615 686 l 604 582 b 368 707 563 661 472 707 b 47 351 175 707 47 567 z m 217 343 b 407 553 217 465 289 553 b 601 343 525 553 601 467 b 407 135 601 219 525 135 b 217 343 289 135 217 221 z "},"r":{"ha":546,"x_min":0,"x_max":0,"o":"m 518 689 b 443 699 490 696 467 699 b 257 585 351 699 286 653 l 247 685 l 88 685 l 88 0 l 257 0 l 257 333 b 456 532 257 467 333 532 l 518 532 z "},"ŕ":{"ha":546,"x_min":0,"x_max":0,"o":"m 490 976 l 333 976 l 229 771 l 354 771 z m 518 689 b 443 699 490 696 467 699 b 257 585 351 699 286 653 l 247 685 l 88 685 l 88 0 l 257 0 l 257 333 b 456 532 257 467 333 532 l 518 532 z "},"ř":{"ha":546,"x_min":0,"x_max":0,"o":"m 204 771 l 378 771 l 503 988 l 369 988 l 290 850 l 211 988 l 78 988 z m 518 689 b 443 699 490 696 467 699 b 257 585 351 699 286 653 l 247 685 l 88 685 l 88 0 l 257 0 l 257 333 b 456 532 257 467 333 532 l 518 532 z "},"ŗ":{"ha":546,"x_min":0,"x_max":0,"o":"m 518 689 b 443 699 490 696 467 699 b 257 585 351 699 286 653 l 247 685 l 88 685 l 88 0 l 257 0 l 257 333 b 456 532 257 467 333 532 l 518 532 z m 261 -157 b 169 -49 261 -90 225 -49 b 82 -132 117 -49 82 -82 b 157 -211 82 -176 113 -211 b 190 -203 169 -211 181 -208 b 94 -257 188 -244 154 -262 l 94 -312 b 261 -157 199 -325 261 -254 z "},"s":{"ha":643,"x_min":0,"x_max":0,"o":"m 35 208 b 314 -18 35 74 143 -18 b 601 207 483 -18 601 68 b 428 392 601 313 543 365 l 304 421 b 215 499 246 435 215 460 b 321 581 215 550 254 581 b 426 485 386 581 425 543 l 588 485 b 328 707 586 618 482 707 b 56 492 169 707 56 626 b 239 296 56 382 115 324 l 363 267 b 442 193 424 253 442 228 b 319 111 442 143 399 111 b 196 208 242 111 197 149 z "},"ś":{"ha":643,"x_min":0,"x_max":0,"o":"m 528 986 l 371 986 l 267 781 l 392 781 z m 35 208 b 314 -18 35 74 143 -18 b 601 207 483 -18 601 68 b 428 392 601 313 543 365 l 304 421 b 215 499 246 435 215 460 b 321 581 215 550 254 581 b 426 485 386 581 425 543 l 588 485 b 328 707 586 618 482 707 b 56 492 169 707 56 626 b 239 296 56 382 115 324 l 363 267 b 442 193 424 253 442 228 b 319 111 442 143 399 111 b 196 208 242 111 197 149 z "},"š":{"ha":643,"x_min":0,"x_max":0,"o":"m 242 781 l 414 781 l 540 997 l 407 997 l 328 860 l 249 997 l 115 997 z m 35 208 b 314 -18 35 74 143 -18 b 601 207 483 -18 601 68 b 428 392 601 313 543 365 l 304 421 b 215 499 246 435 215 460 b 321 581 215 550 254 581 b 426 485 386 581 425 543 l 588 485 b 328 707 586 618 482 707 b 56 492 169 707 56 626 b 239 296 56 382 115 324 l 363 267 b 442 193 424 253 442 228 b 319 111 442 143 399 111 b 196 208 242 111 197 149 z "},"ş":{"ha":643,"x_min":0,"x_max":0,"o":"m 35 208 b 271 -17 35 85 125 -1 l 239 -85 l 256 -132 b 324 -119 278 -124 296 -119 b 382 -167 360 -119 382 -136 b 310 -219 382 -199 357 -219 b 217 -194 275 -219 249 -210 l 217 -272 b 319 -296 244 -287 276 -296 b 476 -165 406 -296 476 -251 b 364 -57 476 -89 419 -57 b 319 -64 347 -57 333 -60 l 343 -17 b 601 207 497 -8 601 76 b 428 392 601 313 543 365 l 304 421 b 215 499 246 435 215 460 b 321 581 215 550 254 581 b 426 485 386 581 425 543 l 588 485 b 328 707 586 618 482 707 b 56 492 169 707 56 626 b 239 296 56 382 115 324 l 363 267 b 442 193 424 253 442 228 b 319 111 442 143 399 111 b 196 208 242 111 197 149 z "},"ŝ":{"ha":643,"x_min":0,"x_max":0,"o":"m 249 781 l 328 918 l 407 781 l 540 781 l 414 997 l 242 997 l 115 781 z m 35 208 b 314 -18 35 74 143 -18 b 601 207 483 -18 601 68 b 428 392 601 313 543 365 l 304 421 b 215 499 246 435 215 460 b 321 581 215 550 254 581 b 426 485 386 581 425 543 l 588 485 b 328 707 586 618 482 707 b 56 492 169 707 56 626 b 239 296 56 382 115 324 l 363 267 b 442 193 424 253 442 228 b 319 111 442 143 399 111 b 196 208 242 111 197 149 z "},"ș":{"ha":643,"x_min":0,"x_max":0,"o":"m 35 208 b 314 -18 35 74 143 -18 b 601 207 483 -18 601 68 b 428 392 601 313 543 365 l 304 421 b 215 499 246 435 215 460 b 321 581 215 550 254 581 b 426 485 386 581 425 543 l 588 485 b 328 707 586 618 482 707 b 56 492 169 707 56 626 b 239 296 56 382 115 324 l 363 267 b 442 193 424 253 442 228 b 319 111 442 143 399 111 b 196 208 242 111 197 149 z m 404 -157 b 311 -49 404 -90 368 -49 b 224 -132 260 -49 224 -82 b 300 -211 224 -176 256 -211 b 332 -204 313 -211 322 -208 b 236 -257 328 -244 297 -262 l 236 -312 b 404 -157 342 -325 404 -254 z "},"ß":{"ha":826,"x_min":0,"x_max":0,"o":"m 257 0 l 257 732 b 413 894 257 831 321 894 b 550 764 499 894 550 843 b 411 631 550 681 497 631 l 347 631 l 347 493 l 411 493 b 619 324 547 493 619 432 b 435 154 619 222 554 154 l 328 154 l 328 10 b 438 0 354 4 400 0 b 790 317 656 0 790 129 b 608 578 790 439 728 529 b 719 772 678 613 719 686 b 411 1033 719 933 601 1033 b 88 715 215 1033 88 913 l 88 0 z "},"t":{"ha":472,"x_min":0,"x_max":0,"o":"m 321 0 l 321 544 l 454 544 l 454 686 l 321 686 l 321 900 l 151 900 l 151 686 l 19 686 l 19 544 l 151 544 l 151 0 z "},"ŧ":{"ha":472,"x_min":0,"x_max":0,"o":"m 321 0 l 321 290 l 419 290 l 419 421 l 321 421 l 321 544 l 454 544 l 454 686 l 321 686 l 321 900 l 151 900 l 151 686 l 19 686 l 19 544 l 151 544 l 151 421 l 53 421 l 53 290 l 151 290 l 151 0 z "},"ť":{"ha":472,"x_min":0,"x_max":0,"o":"m 371 765 l 474 765 l 511 1017 l 371 1017 z m 321 0 l 321 544 l 454 544 l 454 686 l 321 686 l 321 900 l 151 900 l 151 686 l 19 686 l 19 544 l 151 544 l 151 0 z "},"ţ":{"ha":472,"x_min":0,"x_max":0,"o":"m 143 -272 b 246 -296 171 -287 201 -296 b 401 -165 331 -296 401 -251 b 290 -57 401 -89 344 -57 b 244 -64 274 -57 258 -60 l 278 0 l 321 0 l 321 544 l 454 544 l 454 686 l 321 686 l 321 900 l 151 900 l 151 686 l 19 686 l 19 544 l 151 544 l 151 0 l 206 0 l 164 -85 l 182 -132 b 250 -119 204 -124 222 -119 b 308 -167 286 -119 308 -136 b 236 -219 308 -199 283 -219 b 143 -194 201 -219 175 -210 z "},"ț":{"ha":472,"x_min":0,"x_max":0,"o":"m 321 0 l 321 544 l 454 544 l 454 686 l 321 686 l 321 900 l 151 900 l 151 686 l 19 686 l 19 544 l 151 544 l 151 0 z m 331 -157 b 238 -49 331 -90 293 -49 b 150 -132 186 -49 150 -82 b 226 -211 150 -176 182 -211 b 258 -203 238 -211 249 -208 b 163 -257 256 -244 224 -262 l 163 -312 b 331 -157 268 -325 331 -254 z "},"u":{"ha":810,"x_min":0,"x_max":0,"o":"m 553 686 l 553 326 b 394 133 553 196 501 133 b 249 317 300 133 249 186 l 249 686 l 79 686 l 79 257 b 331 -18 79 89 172 -18 b 553 92 422 -18 511 26 l 565 0 l 722 0 l 722 686 z "},"ú":{"ha":810,"x_min":0,"x_max":0,"o":"m 599 974 l 442 974 l 338 768 l 464 768 z m 553 686 l 553 326 b 394 133 553 196 501 133 b 249 317 300 133 249 186 l 249 686 l 79 686 l 79 257 b 331 -18 79 89 172 -18 b 553 92 422 -18 511 26 l 565 0 l 722 0 l 722 686 z "},"û":{"ha":810,"x_min":0,"x_max":0,"o":"m 321 768 l 400 906 l 479 768 l 611 768 l 486 985 l 313 985 l 188 768 z m 553 686 l 553 326 b 394 133 553 196 501 133 b 249 317 300 133 249 186 l 249 686 l 79 686 l 79 257 b 331 -18 79 89 172 -18 b 553 92 422 -18 511 26 l 565 0 l 722 0 l 722 686 z "},"ü":{"ha":810,"x_min":0,"x_max":0,"o":"m 276 785 b 368 878 326 785 368 826 b 276 971 368 928 326 971 b 183 878 225 971 183 928 b 276 785 183 826 225 785 z m 524 785 b 615 878 574 785 615 826 b 524 971 615 928 574 971 b 431 878 474 971 431 928 b 524 785 431 826 472 785 z m 553 686 l 553 326 b 394 133 553 196 501 133 b 249 317 300 133 249 186 l 249 686 l 79 686 l 79 257 b 331 -18 79 89 172 -18 b 553 92 422 -18 511 26 l 565 0 l 722 0 l 722 686 z "},"ù":{"ha":810,"x_min":0,"x_max":0,"o":"m 461 768 l 357 975 l 200 975 l 335 768 z m 553 686 l 553 326 b 394 133 553 196 501 133 b 249 317 300 133 249 186 l 249 686 l 79 686 l 79 257 b 331 -18 79 89 172 -18 b 553 92 422 -18 511 26 l 565 0 l 722 0 l 722 686 z "},"ű":{"ha":810,"x_min":0,"x_max":0,"o":"m 496 974 l 354 974 l 242 768 l 361 768 z m 710 974 l 567 974 l 447 768 l 568 768 z m 553 686 l 553 326 b 394 133 553 196 501 133 b 249 317 300 133 249 186 l 249 686 l 79 686 l 79 257 b 331 -18 79 89 172 -18 b 553 92 422 -18 511 26 l 565 0 l 722 0 l 722 686 z "},"ū":{"ha":810,"x_min":0,"x_max":0,"o":"m 214 819 l 586 819 l 586 939 l 214 939 z m 553 686 l 553 326 b 394 133 553 196 501 133 b 249 317 300 133 249 186 l 249 686 l 79 686 l 79 257 b 331 -18 79 89 172 -18 b 553 92 422 -18 511 26 l 565 0 l 722 0 l 722 686 z "},"ų":{"ha":810,"x_min":0,"x_max":0,"o":"m 618 0 b 507 -143 543 -29 507 -86 b 644 -272 507 -214 560 -272 b 714 -260 671 -272 693 -269 l 714 -147 b 676 -156 701 -153 688 -156 b 622 -104 643 -156 622 -135 b 721 0 622 -68 653 -25 l 722 0 l 722 686 l 553 686 l 553 326 b 394 133 553 196 501 133 b 249 317 300 133 249 186 l 249 686 l 79 686 l 79 257 b 331 -18 79 89 172 -18 b 553 92 422 -18 511 26 l 565 0 z "},"ů":{"ha":810,"x_min":0,"x_max":0,"o":"m 400 751 b 578 928 501 751 578 828 b 400 1106 578 1028 501 1106 b 221 928 299 1106 221 1029 b 400 751 221 825 296 751 z m 400 843 b 318 931 350 843 318 878 b 400 1014 318 981 351 1014 b 481 931 447 1014 481 979 b 400 843 481 878 449 843 z m 553 686 l 553 326 b 394 133 553 196 501 133 b 249 317 300 133 249 186 l 249 686 l 79 686 l 79 257 b 331 -18 79 89 172 -18 b 553 92 422 -18 511 26 l 565 0 l 722 0 l 722 686 z "},"ũ":{"ha":810,"x_min":0,"x_max":0,"o":"m 263 779 b 310 861 263 831 276 861 b 504 779 361 861 408 779 b 636 975 593 779 647 843 l 536 975 b 488 893 536 925 522 893 b 290 975 429 893 382 975 b 163 779 203 975 150 899 z m 553 686 l 553 326 b 394 133 553 196 501 133 b 249 317 300 133 249 186 l 249 686 l 79 686 l 79 257 b 331 -18 79 89 172 -18 b 553 92 422 -18 511 26 l 565 0 l 722 0 l 722 686 z "},"v":{"ha":744,"x_min":0,"x_max":0,"o":"m 282 0 l 449 0 l 735 686 l 560 686 l 435 371 b 371 181 406 296 381 224 b 310 371 363 218 339 289 l 190 686 l 10 686 z "},"w":{"ha":1107,"x_min":0,"x_max":0,"o":"m 239 0 l 404 0 l 499 294 b 553 488 533 407 546 456 b 601 297 558 453 574 388 l 696 0 l 854 0 l 1092 686 l 913 686 l 821 392 b 775 215 808 349 786 267 b 731 392 767 261 739 364 l 639 686 l 467 686 l 372 392 b 325 214 350 324 338 281 b 283 392 313 278 299 338 l 193 686 l 17 686 z "},"ẃ":{"ha":1107,"x_min":0,"x_max":0,"o":"m 754 974 l 597 974 l 493 768 l 618 768 z m 239 0 l 404 0 l 499 294 b 553 488 533 407 546 456 b 601 297 558 453 574 388 l 696 0 l 854 0 l 1092 686 l 913 686 l 821 392 b 775 215 808 349 786 267 b 731 392 767 261 739 364 l 639 686 l 467 686 l 372 392 b 325 214 350 324 338 281 b 283 392 313 278 299 338 l 193 686 l 17 686 z "},"ŵ":{"ha":1107,"x_min":0,"x_max":0,"o":"m 475 768 l 556 906 l 635 768 l 767 768 l 642 985 l 468 985 l 343 768 z m 239 0 l 404 0 l 499 294 b 553 488 533 407 546 456 b 601 297 558 453 574 388 l 696 0 l 854 0 l 1092 686 l 913 686 l 821 392 b 775 215 808 349 786 267 b 731 392 767 261 739 364 l 639 686 l 467 686 l 372 392 b 325 214 350 324 338 281 b 283 392 313 278 299 338 l 193 686 l 17 686 z "},"ẅ":{"ha":1107,"x_min":0,"x_max":0,"o":"m 432 785 b 524 878 482 785 524 826 b 432 971 524 928 482 971 b 339 878 381 971 339 928 b 432 785 339 826 381 785 z m 679 785 b 771 878 729 785 771 826 b 679 971 771 928 729 971 b 586 878 628 971 586 928 b 679 785 586 826 628 785 z m 239 0 l 404 0 l 499 294 b 553 488 533 407 546 456 b 601 297 558 453 574 388 l 696 0 l 854 0 l 1092 686 l 913 686 l 821 392 b 775 215 808 349 786 267 b 731 392 767 261 739 364 l 639 686 l 467 686 l 372 392 b 325 214 350 324 338 281 b 283 392 313 278 299 338 l 193 686 l 17 686 z "},"ẁ":{"ha":1107,"x_min":0,"x_max":0,"o":"m 617 768 l 513 975 l 356 975 l 490 768 z m 239 0 l 404 0 l 499 294 b 553 488 533 407 546 456 b 601 297 558 453 574 388 l 696 0 l 854 0 l 1092 686 l 913 686 l 821 392 b 775 215 808 349 786 267 b 731 392 767 261 739 364 l 639 686 l 467 686 l 372 392 b 325 214 350 324 338 281 b 283 392 313 278 299 338 l 193 686 l 17 686 z "},"x":{"ha":713,"x_min":0,"x_max":0,"o":"m 207 0 l 351 226 l 497 0 l 692 0 l 465 339 l 699 686 l 508 686 l 363 453 l 211 686 l 14 686 l 250 336 l 14 0 z "},"y":{"ha":735,"x_min":0,"x_max":0,"o":"m 28 -318 b 154 -333 65 -328 107 -333 b 390 -153 267 -333 339 -281 l 726 686 l 551 686 l 365 186 l 189 686 l 10 686 l 286 -29 l 267 -81 b 129 -176 238 -161 196 -176 l 28 -176 z "},"ý":{"ha":735,"x_min":0,"x_max":0,"o":"m 574 974 l 417 974 l 313 768 l 438 768 z m 28 -318 b 154 -333 65 -328 107 -333 b 390 -153 267 -333 339 -281 l 726 686 l 551 686 l 365 186 l 189 686 l 10 686 l 286 -29 l 267 -81 b 129 -176 238 -161 196 -176 l 28 -176 z "},"ŷ":{"ha":735,"x_min":0,"x_max":0,"o":"m 294 768 l 375 906 l 454 768 l 586 768 l 461 985 l 288 985 l 163 768 z m 28 -318 b 154 -333 65 -328 107 -333 b 390 -153 267 -333 339 -281 l 726 686 l 551 686 l 365 186 l 189 686 l 10 686 l 286 -29 l 267 -81 b 129 -176 238 -161 196 -176 l 28 -176 z "},"ÿ":{"ha":735,"x_min":0,"x_max":0,"o":"m 251 785 b 343 878 301 785 343 826 b 251 971 343 928 301 971 b 158 878 200 971 158 928 b 251 785 158 826 200 785 z m 499 785 b 590 878 549 785 590 826 b 499 971 590 928 549 971 b 406 878 449 971 406 928 b 499 785 406 826 447 785 z m 28 -318 b 154 -333 65 -328 107 -333 b 390 -153 267 -333 339 -281 l 726 686 l 551 686 l 365 186 l 189 686 l 10 686 l 286 -29 l 267 -81 b 129 -176 238 -161 196 -176 l 28 -176 z "},"ỳ":{"ha":735,"x_min":0,"x_max":0,"o":"m 436 768 l 332 975 l 175 975 l 310 768 z m 28 -318 b 154 -333 65 -328 107 -333 b 390 -153 267 -333 339 -281 l 726 686 l 551 686 l 365 186 l 189 686 l 10 686 l 286 -29 l 267 -81 b 129 -176 238 -161 196 -176 l 28 -176 z "},"z":{"ha":657,"x_min":0,"x_max":0,"o":"m 606 0 l 606 142 l 258 142 l 606 546 l 606 686 l 51 686 l 51 544 l 393 544 l 51 139 l 51 0 z "},"ź":{"ha":657,"x_min":0,"x_max":0,"o":"m 528 974 l 371 974 l 267 768 l 392 768 z m 606 0 l 606 142 l 258 142 l 606 546 l 606 686 l 51 686 l 51 544 l 393 544 l 51 139 l 51 0 z "},"ž":{"ha":657,"x_min":0,"x_max":0,"o":"m 242 768 l 415 768 l 540 985 l 408 985 l 329 847 l 249 985 l 117 985 z m 606 0 l 606 142 l 258 142 l 606 546 l 606 686 l 51 686 l 51 544 l 393 544 l 51 139 l 51 0 z "},"ż":{"ha":657,"x_min":0,"x_max":0,"o":"m 328 785 b 425 882 381 785 425 829 b 328 979 425 933 381 979 b 232 882 275 979 232 935 b 328 785 232 828 275 785 z m 606 0 l 606 142 l 258 142 l 606 546 l 606 686 l 51 686 l 51 544 l 393 544 l 51 139 l 51 0 z "},"ﬀ":{"ha":919,"x_min":0,"x_max":0,"o":"m 19 686 l 19 544 l 118 544 l 118 0 l 286 0 l 286 544 l 567 544 l 567 0 l 735 0 l 735 544 l 899 544 l 899 686 l 735 686 l 735 769 b 842 882 735 838 756 882 l 900 882 l 900 1026 b 813 1033 871 1032 840 1033 b 567 769 664 1033 567 956 l 567 686 l 286 686 l 286 769 b 392 882 286 838 306 882 l 451 882 l 451 1026 b 364 1033 422 1032 390 1033 b 118 769 215 1033 118 956 l 118 686 z "},"ﬃ":{"ha":1272,"x_min":0,"x_max":0,"o":"m 19 686 l 19 544 l 118 544 l 118 0 l 286 0 l 286 544 l 567 544 l 567 0 l 735 0 l 735 544 l 1015 544 l 1015 0 l 1185 0 l 1185 686 l 735 686 l 735 769 b 832 882 735 838 756 882 l 890 882 l 890 1026 b 803 1033 861 1032 831 1033 b 567 769 664 1033 567 956 l 567 686 l 286 686 l 286 769 b 392 882 286 838 306 882 l 451 882 l 451 1026 b 364 1033 422 1032 390 1033 b 118 769 215 1033 118 956 l 118 686 z m 1100 831 b 1201 932 1157 831 1201 875 b 1100 1033 1201 989 1157 1033 b 1000 932 1043 1033 1000 989 b 1100 831 1000 875 1043 831 z "},"ﬄ":{"ha":1268,"x_min":0,"x_max":0,"o":"m 19 686 l 19 544 l 118 544 l 118 0 l 286 0 l 286 544 l 567 544 l 567 0 l 735 0 l 735 544 l 1010 544 l 1010 0 l 1178 0 l 1178 1033 l 1010 1033 l 1010 686 l 735 686 l 735 769 b 842 882 735 838 756 882 l 900 882 l 900 1026 b 813 1033 871 1032 840 1033 b 567 769 664 1033 567 956 l 567 686 l 286 686 l 286 769 b 392 882 286 838 306 882 l 451 882 l 451 1026 b 364 1033 422 1032 390 1033 b 118 769 215 1033 118 956 l 118 686 z "},"ﬁ":{"ha":824,"x_min":0,"x_max":0,"o":"m 567 0 l 736 0 l 736 686 l 286 686 l 286 769 b 382 882 286 838 306 882 l 442 882 l 442 1026 b 354 1033 413 1032 381 1033 b 118 769 215 1033 118 956 l 118 686 l 19 686 l 19 544 l 118 544 l 118 0 l 286 0 l 286 544 l 567 544 z m 651 826 b 751 928 707 826 751 871 b 651 1028 751 983 707 1028 b 550 928 594 1028 550 983 b 651 826 550 871 594 826 z "},"ﬂ":{"ha":819,"x_min":0,"x_max":0,"o":"m 19 686 l 19 544 l 118 544 l 118 0 l 286 0 l 286 544 l 560 544 l 560 0 l 729 0 l 729 1033 l 560 1033 l 560 686 l 286 686 l 286 769 b 379 882 286 838 303 882 l 439 882 l 439 1026 b 351 1033 410 1032 378 1033 b 118 769 213 1033 118 956 l 118 686 z "},"Ω":{"ha":913,"x_min":0,"x_max":0,"o":"m 407 0 l 407 128 b 249 363 310 164 249 256 b 457 564 249 485 340 564 b 665 363 574 564 665 485 b 507 128 665 264 611 171 l 507 0 l 825 0 l 825 128 l 701 128 b 813 381 769 192 813 279 b 458 707 813 556 675 707 b 101 379 244 707 101 560 b 210 128 101 278 143 192 l 88 128 l 88 0 z "},"π":{"ha":893,"x_min":0,"x_max":0,"o":"m 147 0 l 317 0 l 317 547 l 543 547 l 543 181 b 718 -4 543 51 597 -4 b 849 7 754 -4 803 -1 l 849 146 l 782 147 b 713 213 738 147 713 165 l 713 547 l 849 547 l 849 686 l 21 686 l 21 547 l 147 547 z "},"₀":{"ha":593,"x_min":0,"x_max":0,"o":"m 35 165 b 296 -150 35 -25 132 -150 b 558 165 456 -150 558 -25 b 297 485 558 356 463 485 b 35 165 139 485 35 356 z m 150 165 b 297 381 150 306 204 381 b 443 165 390 381 443 306 b 297 -47 443 28 390 -47 b 150 165 204 -47 150 28 z "},"₁":{"ha":353,"x_min":0,"x_max":0,"o":"m 176 368 l 176 -139 l 292 -139 l 292 474 l 28 474 l 28 368 z "},"₂":{"ha":499,"x_min":0,"x_max":0,"o":"m 465 -139 l 465 -35 l 218 -35 l 343 69 b 460 281 419 133 460 200 b 249 485 460 407 379 485 b 33 261 119 485 38 399 l 147 261 b 249 381 147 338 185 381 b 344 274 311 381 344 343 b 264 135 344 221 319 181 l 40 -51 l 40 -139 z "},"₃":{"ha":494,"x_min":0,"x_max":0,"o":"m 197 158 b 242 157 217 158 228 158 b 347 56 315 153 347 111 b 244 -46 347 -6 306 -46 b 140 58 182 -46 140 -8 l 28 58 b 242 -150 28 -74 121 -150 b 463 54 364 -150 463 -72 b 296 244 463 167 388 229 l 447 376 l 447 474 l 56 474 l 56 369 l 308 369 l 151 233 l 151 158 z "},"₄":{"ha":536,"x_min":0,"x_max":0,"o":"m 519 -26 l 519 76 l 446 76 l 446 474 l 301 474 l 26 78 l 26 -26 l 335 -26 l 335 -139 l 446 -139 l 446 -26 z m 156 76 l 335 339 l 335 76 z "},"₅":{"ha":503,"x_min":0,"x_max":0,"o":"m 25 61 b 253 -149 25 -61 121 -149 b 479 71 386 -149 479 -60 b 271 282 479 193 392 282 b 178 260 233 282 203 275 l 207 369 l 442 369 l 442 474 l 118 474 l 40 150 l 147 135 b 250 188 171 171 203 188 b 363 69 318 188 363 142 b 250 -46 363 -1 319 -46 b 139 61 183 -46 139 -3 z "},"₆":{"ha":536,"x_min":0,"x_max":0,"o":"m 126 303 b 33 78 57 208 33 154 b 269 -150 33 -50 135 -150 b 503 78 403 -150 503 -56 b 286 289 503 204 415 289 b 239 281 271 289 254 286 l 390 483 l 260 483 z m 151 74 b 269 194 151 142 200 194 b 386 74 338 194 386 142 b 269 -46 386 4 338 -46 b 151 74 200 -46 151 4 z "},"₇":{"ha":472,"x_min":0,"x_max":0,"o":"m 447 369 l 447 474 l 24 474 l 24 369 l 338 369 l 128 -139 l 242 -139 z "},"₈":{"ha":533,"x_min":0,"x_max":0,"o":"m 33 29 b 267 -149 33 -81 124 -149 b 500 29 408 -149 500 -81 b 386 188 500 106 456 167 b 472 317 438 207 472 254 b 268 485 472 419 390 485 b 64 318 143 485 64 417 b 146 188 64 257 94 210 b 33 29 76 165 33 103 z m 161 308 b 267 386 161 354 200 386 b 369 307 332 386 369 354 b 267 231 369 261 333 231 b 161 308 197 231 161 263 z m 149 44 b 267 133 149 103 197 133 b 385 44 336 133 385 101 b 267 -46 385 -14 339 -46 b 149 44 196 -46 149 -14 z "},"₉":{"ha":536,"x_min":0,"x_max":0,"o":"m 410 42 b 503 267 479 136 503 192 b 267 494 503 394 401 494 b 33 267 133 494 33 401 b 250 57 33 140 122 57 b 299 65 265 57 282 60 l 146 -139 l 276 -139 z m 385 271 b 267 151 385 203 338 151 b 150 271 199 151 150 203 b 267 392 150 340 199 392 b 385 271 338 392 385 340 z "},"⁰":{"ha":592,"x_min":0,"x_max":0,"o":"m 35 758 b 296 443 35 568 132 443 b 558 758 456 443 558 568 b 297 1078 558 949 463 1078 b 35 758 139 1078 35 949 z m 150 758 b 297 974 150 899 204 974 b 443 758 390 974 443 899 b 297 546 443 621 390 546 b 150 758 204 546 150 621 z "},"¹":{"ha":353,"x_min":0,"x_max":0,"o":"m 176 965 l 176 458 l 292 458 l 292 1071 l 28 1071 l 28 965 z "},"²":{"ha":499,"x_min":0,"x_max":0,"o":"m 465 458 l 465 563 l 218 563 l 343 667 b 460 878 419 731 460 797 b 249 1082 460 1004 379 1082 b 33 858 119 1082 38 996 l 147 858 b 249 978 147 935 185 978 b 344 871 311 978 344 940 b 264 732 344 818 319 778 l 40 546 l 40 458 z "},"³":{"ha":494,"x_min":0,"x_max":0,"o":"m 197 756 b 242 754 217 756 228 756 b 347 653 315 750 347 708 b 244 551 347 592 306 551 b 140 656 182 551 140 589 l 28 656 b 242 447 28 524 121 447 b 463 651 364 447 463 525 b 296 842 463 764 388 826 l 447 974 l 447 1071 l 56 1071 l 56 967 l 308 967 l 151 831 l 151 756 z "},"⁴":{"ha":526,"x_min":0,"x_max":0,"o":"m 519 571 l 519 674 l 446 674 l 446 1071 l 301 1071 l 26 675 l 26 571 l 335 571 l 335 458 l 446 458 l 446 571 z m 156 674 l 335 936 l 335 674 z "},"⁵":{"ha":503,"x_min":0,"x_max":0,"o":"m 25 658 b 253 449 25 536 121 449 b 479 668 386 449 479 538 b 271 879 479 790 392 879 b 178 857 233 879 203 872 l 207 967 l 442 967 l 442 1071 l 118 1071 l 40 747 l 147 732 b 250 785 171 768 203 785 b 363 667 318 785 363 739 b 250 551 363 596 319 551 b 139 658 183 551 139 594 z "},"⁶":{"ha":536,"x_min":0,"x_max":0,"o":"m 126 900 b 33 675 57 806 33 751 b 269 447 33 547 135 447 b 503 675 403 447 503 542 b 286 886 503 801 415 886 b 239 878 271 886 254 883 l 390 1081 l 260 1081 z m 151 671 b 269 792 151 739 200 792 b 386 671 338 792 386 739 b 269 551 386 601 338 551 b 151 671 200 551 151 601 z "},"⁷":{"ha":472,"x_min":0,"x_max":0,"o":"m 447 967 l 447 1071 l 24 1071 l 24 967 l 338 967 l 128 458 l 242 458 z "},"⁸":{"ha":533,"x_min":0,"x_max":0,"o":"m 33 626 b 267 449 33 517 124 449 b 500 626 408 449 500 517 b 386 785 500 703 456 764 b 472 914 438 804 472 851 b 268 1082 472 1017 390 1082 b 64 915 143 1082 64 1014 b 146 785 64 854 94 807 b 33 626 76 763 33 700 z m 161 906 b 267 983 161 951 200 983 b 369 904 332 983 369 951 b 267 828 369 858 333 828 b 161 906 197 828 161 860 z m 149 642 b 267 731 149 700 197 731 b 385 642 336 731 385 699 b 267 551 385 583 339 551 b 149 642 196 551 149 583 z "},"⁹":{"ha":536,"x_min":0,"x_max":0,"o":"m 410 639 b 503 864 479 733 503 789 b 267 1092 503 992 401 1092 b 33 864 133 1092 33 999 b 250 654 33 738 122 654 b 299 663 265 654 282 657 l 146 458 l 276 458 z m 385 868 b 267 749 385 800 338 749 b 150 868 199 749 150 800 b 267 989 150 938 199 989 b 385 868 338 989 385 938 z "},"⁄":{"ha":226,"x_min":0,"x_max":0,"o":"m 510 986 l 374 986 l -283 0 l -147 0 z "},"½":{"ha":1031,"x_min":0,"x_max":0,"o":"m 147 924 l 147 518 l 246 518 l 246 1015 l 22 1015 l 22 924 z m 881 986 l 743 986 l 88 0 l 224 0 z m 1000 0 l 1000 90 l 808 90 l 871 142 b 985 338 950 204 985 265 b 810 506 985 440 918 506 b 628 332 701 506 628 435 l 728 332 b 808 415 728 385 758 415 b 883 332 856 415 883 385 b 804 203 883 288 860 247 l 642 74 l 642 0 z "},"¼":{"ha":982,"x_min":0,"x_max":0,"o":"m 147 924 l 147 518 l 246 518 l 246 1015 l 22 1015 l 22 924 z m 881 986 l 743 986 l 88 0 l 224 0 z m 790 94 l 790 0 l 886 0 l 886 94 l 950 94 l 950 183 l 886 183 l 886 497 l 764 497 l 546 175 l 546 94 z m 656 183 l 790 381 l 790 183 z "},"¾":{"ha":1025,"x_min":0,"x_max":0,"o":"m 26 681 b 204 508 26 569 107 508 b 383 676 306 508 383 572 b 256 828 383 764 326 813 l 371 932 l 371 1015 l 50 1015 l 50 925 l 242 925 l 126 821 l 126 756 l 186 756 b 282 675 253 756 282 722 b 207 600 282 629 253 600 b 128 681 160 600 128 628 z m 924 986 l 786 986 l 129 0 l 267 0 z m 833 94 l 833 0 l 929 0 l 929 94 l 993 94 l 993 183 l 929 183 l 929 497 l 807 497 l 589 175 l 589 94 z m 699 183 l 833 381 l 833 183 z "},"⅛":{"ha":1049,"x_min":0,"x_max":0,"o":"m 147 924 l 147 518 l 246 518 l 246 1015 l 22 1015 l 22 924 z m 881 986 l 743 986 l 88 0 l 224 0 z m 635 138 b 822 -8 635 49 708 -8 b 1010 138 936 -8 1010 49 b 919 265 1010 199 974 249 b 985 372 958 282 985 321 b 824 506 985 454 921 506 b 660 372 724 506 660 451 b 725 265 660 324 685 283 b 635 138 669 247 635 197 z m 746 360 b 822 419 746 394 774 419 b 899 361 869 419 899 394 b 822 301 899 326 869 301 b 746 360 772 301 746 325 z m 736 150 b 822 218 736 194 772 218 b 908 150 872 218 908 194 b 822 82 908 106 874 82 b 736 150 771 82 736 106 z "},"⅜":{"ha":1092,"x_min":0,"x_max":0,"o":"m 26 681 b 204 508 26 569 107 508 b 383 676 306 508 383 572 b 256 828 383 764 326 813 l 371 932 l 371 1015 l 50 1015 l 50 925 l 242 925 l 126 821 l 126 756 l 186 756 b 282 675 253 756 282 722 b 207 600 282 629 253 600 b 128 681 160 600 128 628 z m 924 986 l 786 986 l 129 0 l 267 0 z m 678 138 b 865 -8 678 49 751 -8 b 1053 138 979 -8 1053 49 b 961 265 1053 199 1017 249 b 1028 372 1001 281 1028 321 b 867 506 1028 454 964 506 b 703 372 767 506 703 451 b 768 265 703 324 728 283 b 678 138 714 247 678 197 z m 789 360 b 865 419 789 394 817 419 b 940 361 913 419 940 394 b 865 301 940 326 913 301 b 789 360 815 301 789 325 z m 779 150 b 865 218 779 194 815 218 b 951 150 915 218 951 194 b 865 82 951 106 917 82 b 779 150 814 82 779 106 z "},"⅝":{"ha":1115,"x_min":0,"x_max":0,"o":"m 215 510 b 403 690 326 510 403 583 b 229 863 403 786 340 863 b 153 842 196 863 171 854 l 176 925 l 379 925 l 379 1015 l 106 1015 l 40 751 l 135 738 b 215 781 149 764 181 781 b 301 690 267 781 301 744 b 215 600 301 636 271 600 b 136 682 168 600 136 629 l 35 682 b 215 510 35 571 117 510 z m 947 986 l 811 986 l 154 0 l 290 0 z m 703 138 b 889 -8 703 49 775 -8 b 1076 138 1003 -8 1076 49 b 986 265 1076 199 1040 249 b 1053 372 1026 282 1053 321 b 890 506 1053 454 988 506 b 726 372 792 506 726 451 b 792 265 726 324 751 283 b 703 138 738 247 703 197 z m 813 360 b 889 419 813 394 840 419 b 965 361 936 419 965 394 b 889 301 965 326 938 301 b 813 360 839 301 813 325 z m 803 150 b 889 218 803 194 839 218 b 975 150 939 218 975 194 b 889 82 975 106 940 82 b 803 150 838 82 803 106 z "},"⅞":{"ha":1013,"x_min":0,"x_max":0,"o":"m 272 924 l 94 518 l 196 518 l 372 924 l 372 1015 l 18 1015 l 18 924 z m 844 986 l 707 986 l 50 0 l 188 0 z m 599 138 b 786 -8 599 49 672 -8 b 974 138 899 -8 974 49 b 882 265 974 199 938 249 b 949 372 922 282 949 321 b 786 506 949 454 885 506 b 622 372 688 506 622 451 b 688 265 622 324 649 283 b 599 138 633 247 599 197 z m 710 360 b 786 419 710 394 738 419 b 861 361 833 419 861 394 b 786 301 861 326 833 301 b 710 360 736 301 710 325 z m 700 150 b 786 218 700 194 736 218 b 872 150 836 218 872 194 b 786 82 872 106 838 82 b 700 150 735 82 700 106 z "},"*":{"ha":583,"x_min":0,"x_max":0,"o":"m 126 785 b 238 760 168 769 199 765 b 160 676 210 736 188 715 l 104 593 l 179 542 l 238 621 b 289 722 261 653 279 686 b 344 621 301 693 315 661 l 400 542 l 475 593 l 419 676 b 344 760 394 714 374 735 b 456 785 375 764 411 769 l 550 818 l 518 904 l 426 874 b 325 822 379 857 351 840 b 336 936 332 854 336 889 l 336 1035 l 246 1035 l 246 936 b 258 822 246 889 250 856 b 156 874 229 842 203 857 l 65 903 l 33 818 z "},"⁂":{"ha":1299,"x_min":0,"x_max":0,"o":"m 483 788 b 596 763 528 771 564 767 b 518 679 568 739 547 717 l 461 596 l 536 544 l 596 624 b 647 724 622 663 638 693 b 701 624 658 696 674 664 l 758 544 l 833 596 l 778 679 b 701 763 749 717 731 739 b 814 788 733 767 769 771 l 908 821 l 875 907 l 785 876 b 682 825 736 860 711 844 b 694 939 689 856 694 892 l 694 1038 l 603 1038 l 603 939 b 615 825 603 892 608 858 b 514 876 586 843 560 858 l 424 906 l 390 821 z m 126 246 b 238 222 172 229 208 225 b 161 138 211 197 189 175 l 104 54 l 179 3 l 238 82 b 289 183 265 121 281 153 b 344 82 301 154 315 122 l 400 4 l 475 54 l 421 138 b 344 222 392 175 374 196 b 456 246 375 225 413 231 l 551 279 l 518 365 l 428 335 b 325 283 381 317 351 301 b 338 397 332 315 338 350 l 338 496 l 246 496 l 246 397 b 258 283 246 350 251 317 b 156 335 229 301 203 317 l 67 365 l 33 279 z m 842 246 b 953 222 886 229 922 225 b 876 138 925 197 904 175 l 819 54 l 893 3 l 953 82 b 1004 183 979 121 994 153 b 1060 82 1015 154 1031 122 l 1115 4 l 1190 54 l 1136 138 b 1060 222 1107 175 1089 196 b 1171 246 1092 225 1128 231 l 1265 279 l 1233 365 l 1142 335 b 1040 283 1094 317 1067 301 b 1051 397 1047 315 1051 350 l 1051 496 l 960 496 l 960 397 b 972 283 960 350 967 317 b 871 335 944 301 917 317 l 782 365 l 747 279 z "},"\\":{"ha":565,"x_min":0,"x_max":0,"o":"m 169 1014 l 0 1014 l 397 0 l 565 0 z "},"·":{"ha":463,"x_min":0,"x_max":0,"o":"m 232 239 b 381 386 313 239 381 307 b 232 535 381 467 313 535 b 82 386 150 535 82 468 b 232 239 82 306 150 239 z "},"•":{"ha":603,"x_min":0,"x_max":0,"o":"m 303 157 b 521 374 419 157 521 256 b 303 593 521 492 422 593 b 82 374 183 593 82 493 b 303 157 82 256 183 157 z "},":":{"ha":432,"x_min":0,"x_max":0,"o":"m 215 489 b 328 599 276 489 328 539 b 215 710 328 660 276 710 b 103 599 154 710 103 660 b 215 489 103 539 154 489 z m 215 -17 b 328 93 276 -17 328 33 b 215 204 328 154 276 204 b 103 93 154 204 103 154 b 215 -17 103 33 154 -17 z "},",":{"ha":404,"x_min":0,"x_max":0,"o":"m 314 61 b 194 204 314 147 264 204 b 89 93 132 204 89 160 b 188 -3 89 38 133 -3 b 228 6 204 -3 217 0 b 118 -92 228 -43 181 -81 l 118 -160 b 314 61 231 -146 314 -54 z "},"…":{"ha":1096,"x_min":0,"x_max":0,"o":"m 201 -17 b 314 93 263 -17 314 33 b 201 204 314 154 263 204 b 89 93 140 204 89 154 b 201 -17 89 33 140 -17 z m 547 -17 b 660 93 608 -17 660 33 b 547 204 660 154 608 204 b 435 93 486 204 435 154 b 547 -17 435 33 486 -17 z m 893 -17 b 1006 93 954 -17 1006 33 b 893 204 1006 154 954 204 b 781 93 832 204 781 154 b 893 -17 781 33 832 -17 z "},"!":{"ha":444,"x_min":0,"x_max":0,"o":"m 289 304 b 322 782 308 411 322 597 l 322 1015 l 122 1015 l 122 782 b 153 304 122 601 135 415 z m 222 -18 b 333 92 282 -18 333 32 b 222 203 333 153 282 203 b 108 92 160 203 108 153 b 222 -18 108 32 160 -18 z "},"¡":{"ha":444,"x_min":0,"x_max":0,"o":"m 222 1033 b 108 924 160 1033 108 983 b 222 813 108 863 160 813 b 333 924 282 813 333 863 b 222 1033 333 983 282 1033 z m 153 711 b 122 233 135 600 122 414 l 122 0 l 322 0 l 322 233 b 289 711 322 418 308 604 z "},"#":{"ha":999,"x_min":0,"x_max":0,"o":"m 89 421 l 57 263 l 190 263 l 139 0 l 307 0 l 358 263 l 536 263 l 485 0 l 653 0 l 704 263 l 861 263 l 893 421 l 735 421 l 768 593 l 910 593 l 942 751 l 799 751 l 850 1015 l 682 1015 l 631 751 l 454 751 l 506 1015 l 338 1015 l 286 751 l 135 751 l 103 593 l 256 593 l 221 421 z m 389 421 l 424 593 l 600 593 l 567 421 z "},".":{"ha":404,"x_min":0,"x_max":0,"o":"m 201 -17 b 314 93 263 -17 314 33 b 201 204 314 154 263 204 b 89 93 140 204 89 154 b 201 -17 89 33 140 -17 z "},"?":{"ha":769,"x_min":0,"x_max":0,"o":"m 426 260 l 426 292 b 547 453 426 363 479 404 b 724 729 628 510 724 581 b 392 1033 724 914 599 1033 b 44 694 190 1033 44 893 l 221 694 b 388 875 221 801 289 875 b 543 718 485 875 543 813 b 424 540 543 638 486 590 b 272 292 350 483 272 418 l 272 260 z m 356 -18 b 468 92 417 -18 468 33 b 356 203 468 153 417 203 b 243 92 293 203 243 153 b 356 -18 243 32 293 -18 z "},"¿":{"ha":769,"x_min":0,"x_max":0,"o":"m 413 1035 b 301 924 353 1035 301 983 b 413 813 301 864 353 813 b 526 924 475 813 526 863 b 413 1035 526 985 475 1035 z m 342 757 l 342 724 b 221 563 342 654 290 611 b 44 288 140 507 44 436 b 378 -18 44 103 171 -18 b 724 321 579 -18 724 124 l 549 321 b 382 140 549 215 481 140 b 225 297 283 140 225 204 b 346 475 225 379 282 426 b 496 724 418 533 496 597 l 496 757 z "},"\"":{"ha":603,"x_min":0,"x_max":0,"o":"m 257 913 b 174 1022 268 990 215 1022 b 83 913 124 1022 71 990 l 125 613 l 215 613 z m 521 913 b 438 1022 532 990 479 1022 b 347 913 388 1022 335 990 l 389 613 l 479 613 z "},"'":{"ha":339,"x_min":0,"x_max":0,"o":"m 257 913 b 174 1022 268 990 215 1022 b 83 913 124 1022 71 990 l 125 613 l 215 613 z "},";":{"ha":432,"x_min":0,"x_max":0,"o":"m 215 489 b 328 599 276 489 328 539 b 215 710 328 660 276 710 b 103 599 154 710 103 660 b 215 489 103 539 154 489 z m 328 61 b 208 204 328 147 278 204 b 103 93 146 204 103 160 b 201 -3 103 38 147 -3 b 242 6 218 -3 231 0 b 132 -92 242 -43 194 -81 l 132 -160 b 328 61 244 -146 328 -54 z "},"/":{"ha":565,"x_min":0,"x_max":0,"o":"m 168 0 l 565 1014 l 396 1014 l 0 0 z "},"_":{"ha":757,"x_min":0,"x_max":0,"o":"m 83 -149 l 674 -149 l 674 -24 l 83 -24 z "},"{":{"ha":485,"x_min":0,"x_max":0,"o":"m 63 449 b 204 324 158 449 204 404 l 204 39 b 382 -129 204 -64 275 -129 l 478 -129 l 478 1 l 415 1 b 358 68 381 1 358 25 l 358 344 b 238 515 358 438 318 490 b 358 688 318 542 358 594 l 358 964 b 415 1029 358 1007 381 1029 l 478 1029 l 478 1161 l 382 1161 b 204 993 275 1161 204 1094 l 204 707 b 63 583 204 628 158 583 z "},"}":{"ha":485,"x_min":0,"x_max":0,"o":"m 103 -129 b 281 39 210 -129 281 -64 l 281 324 b 422 449 281 404 326 449 l 422 583 b 281 707 326 583 281 628 l 281 993 b 103 1161 281 1094 210 1161 l 7 1161 l 7 1029 l 69 1029 b 126 964 104 1029 126 1007 l 126 688 b 247 515 126 594 167 542 b 126 344 167 490 126 438 l 126 68 b 69 1 126 25 104 1 l 7 1 l 7 -129 z "},"[":{"ha":425,"x_min":0,"x_max":0,"o":"m 247 1 l 247 1029 l 418 1029 l 418 1161 l 93 1161 l 93 -129 l 418 -129 l 418 1 z "},"]":{"ha":425,"x_min":0,"x_max":0,"o":"m 7 -129 l 331 -129 l 331 1161 l 7 1161 l 7 1029 l 178 1029 l 178 1 l 7 1 z "},"(":{"ha":428,"x_min":0,"x_max":0,"o":"m 428 -265 b 233 408 301 -93 233 163 b 428 1081 233 678 313 924 l 293 1081 b 63 408 140 907 63 651 b 293 -265 63 142 154 -107 z "},")":{"ha":428,"x_min":0,"x_max":0,"o":"m 135 -265 b 367 408 274 -107 367 142 b 135 1081 367 651 288 907 l 0 1081 b 194 408 115 924 194 678 b 0 -265 194 163 128 -93 z "},"—":{"ha":1682,"x_min":0,"x_max":0,"o":"m 96 294 l 1588 294 l 1588 444 l 96 444 z "},"–":{"ha":1357,"x_min":0,"x_max":0,"o":"m 96 294 l 1263 294 l 1263 444 l 96 444 z "},"-":{"ha":618,"x_min":0,"x_max":0,"o":"m 86 296 l 533 296 l 533 446 l 86 446 z "},"«":{"ha":1003,"x_min":0,"x_max":0,"o":"m 356 0 l 572 0 l 271 343 l 572 686 l 356 686 l 56 343 z m 731 0 l 947 0 l 646 343 l 947 686 l 731 686 l 431 343 z "},"»":{"ha":1003,"x_min":0,"x_max":0,"o":"m 271 0 l 572 343 l 271 686 l 56 686 l 356 343 l 56 0 z m 646 0 l 947 343 l 646 686 l 431 686 l 731 343 l 431 0 z "},"‹":{"ha":628,"x_min":0,"x_max":0,"o":"m 356 0 l 572 0 l 271 343 l 572 686 l 356 686 l 56 343 z "},"›":{"ha":628,"x_min":0,"x_max":0,"o":"m 271 0 l 572 343 l 271 686 l 56 686 l 356 343 l 56 0 z "},"„":{"ha":665,"x_min":0,"x_max":0,"o":"m 303 51 b 190 188 303 135 256 188 b 88 83 129 188 88 144 b 178 -12 88 24 128 -12 b 217 -4 193 -12 206 -10 b 114 -101 217 -54 174 -90 l 114 -169 b 303 51 225 -156 303 -65 z m 578 51 b 465 188 578 135 531 188 b 363 83 404 188 363 144 b 451 -12 363 24 401 -12 b 490 -4 467 -12 479 -10 b 389 -101 490 -54 449 -90 l 389 -169 b 578 51 500 -156 578 -65 z "},"“":{"ha":665,"x_min":0,"x_max":0,"o":"m 303 782 b 214 878 303 842 264 878 b 175 871 199 878 186 875 b 276 968 175 919 217 957 l 276 1035 b 88 814 165 1021 88 931 b 200 678 88 731 135 678 b 303 782 261 678 303 721 z m 578 782 b 488 878 578 842 538 878 b 449 869 472 878 460 875 b 551 968 449 919 492 957 l 551 1035 b 363 814 440 1021 363 931 b 475 678 363 731 410 678 b 578 782 536 678 578 721 z "},"”":{"ha":665,"x_min":0,"x_max":0,"o":"m 303 899 b 190 1035 303 982 256 1035 b 88 931 129 1035 88 992 b 178 835 88 869 128 835 b 217 842 193 835 206 838 b 114 744 217 793 174 756 l 114 678 b 303 899 225 692 303 782 z m 578 899 b 465 1035 578 982 531 1035 b 363 931 404 1035 363 992 b 451 835 363 869 401 835 b 490 842 467 835 479 838 b 389 744 490 793 449 756 l 389 678 b 578 899 500 692 578 782 z "},"‘":{"ha":390,"x_min":0,"x_max":0,"o":"m 303 782 b 214 878 303 842 264 878 b 175 871 199 878 186 875 b 276 968 175 919 217 957 l 276 1035 b 88 814 165 1021 88 931 b 200 678 88 731 135 678 b 303 782 261 678 303 721 z "},"’":{"ha":390,"x_min":0,"x_max":0,"o":"m 303 899 b 190 1035 303 982 256 1035 b 88 931 129 1035 88 992 b 178 835 88 869 128 835 b 217 842 193 835 206 838 b 114 744 217 793 174 756 l 114 678 b 303 899 225 692 303 782 z "},"‚":{"ha":390,"x_min":0,"x_max":0,"o":"m 303 51 b 190 188 303 135 256 188 b 88 83 129 188 88 144 b 178 -12 88 24 128 -12 b 217 -4 193 -12 206 -10 b 114 -101 217 -54 174 -90 l 114 -169 b 303 51 225 -156 303 -65 z "}," ":{"ha":375,"x_min":0,"x_max":0,"o":""},"¢":{"ha":797,"x_min":0,"x_max":0,"o":"m 332 -1 l 475 -1 l 475 150 b 743 415 624 172 726 274 l 572 415 b 411 299 554 340 500 299 b 231 507 303 299 231 379 b 411 717 231 635 304 717 b 572 599 497 717 553 676 l 743 599 b 475 863 726 743 626 840 l 475 1015 l 332 1015 l 332 861 b 61 507 169 829 61 692 b 332 153 61 319 168 185 z "},"¤":{"ha":989,"x_min":0,"x_max":0,"o":"m 800 94 l 910 207 l 801 313 b 858 506 838 369 858 435 b 801 700 858 578 838 644 l 910 807 l 800 918 l 692 811 b 496 869 635 849 568 869 b 299 811 422 869 354 847 l 189 918 l 79 807 l 189 699 b 133 506 154 643 133 576 b 189 314 133 436 154 369 l 79 207 l 189 94 l 299 203 b 496 144 356 165 424 144 b 692 203 567 144 635 165 z m 703 506 b 496 300 703 393 608 300 b 289 506 382 300 289 393 b 496 713 289 619 381 713 b 703 506 610 713 703 619 z "},"$":{"ha":822,"x_min":0,"x_max":0,"o":"m 361 -132 l 468 -132 l 468 -14 b 774 293 654 7 774 124 b 515 565 774 440 693 526 l 468 576 l 468 875 b 585 736 540 860 582 811 l 757 736 b 468 1031 751 903 643 1013 l 468 1149 l 361 1149 l 361 1031 b 54 732 176 1011 54 894 b 317 444 54 579 142 482 l 361 435 l 361 139 b 218 279 271 150 219 200 l 40 279 b 361 -17 44 110 168 -3 z m 356 601 b 228 738 267 621 228 664 b 361 876 228 813 278 863 l 361 600 z m 478 410 b 601 278 561 392 601 349 b 468 142 601 207 551 158 l 468 413 z "},"€":{"ha":858,"x_min":0,"x_max":0,"o":"m 619 -17 b 799 4 679 -17 735 -10 l 799 175 b 629 149 743 158 685 149 b 314 331 475 149 365 210 l 661 331 l 661 457 l 285 457 b 282 508 283 474 282 490 b 283 554 282 524 282 539 l 661 554 l 661 681 l 313 681 b 643 867 364 804 478 867 b 789 846 685 867 744 858 l 789 1013 b 635 1033 743 1026 686 1033 b 131 681 381 1033 193 903 l 25 681 l 25 554 l 108 554 b 107 506 107 539 107 522 b 108 457 107 489 107 472 l 25 457 l 25 331 l 129 331 b 619 -17 192 111 375 -17 z "},"ƒ":{"ha":868,"x_min":0,"x_max":0,"o":"m 101 564 l 101 406 l 335 406 l 281 -8 b 188 -89 274 -61 236 -89 l 67 -89 l 67 -251 l 185 -251 b 458 -32 361 -251 440 -171 l 515 406 l 785 406 l 785 564 l 536 564 l 563 772 b 654 865 571 839 604 865 l 793 865 l 793 1028 l 664 1028 b 383 782 503 1028 403 933 l 356 564 z "},"£":{"ha":903,"x_min":0,"x_max":0,"o":"m 536 0 b 849 338 738 0 849 124 l 678 338 b 510 165 676 228 638 165 l 258 165 b 364 353 331 199 364 272 b 351 444 364 385 358 415 l 621 444 l 621 576 l 307 576 b 281 711 293 621 281 664 b 454 875 281 811 350 875 b 625 724 553 875 619 826 l 803 724 b 460 1033 797 917 656 1033 b 108 708 250 1033 108 893 b 133 576 108 664 119 619 l 44 576 l 44 444 l 178 444 b 194 346 188 411 194 378 b 38 165 194 246 132 172 l 38 0 z "},"¥":{"ha":913,"x_min":0,"x_max":0,"o":"m 319 518 l 140 518 l 140 392 l 372 392 l 372 311 l 140 311 l 140 185 l 372 185 l 372 0 l 540 0 l 540 185 l 771 185 l 771 311 l 540 311 l 540 392 l 771 392 l 771 518 l 593 518 l 885 1015 l 683 1015 l 456 593 l 229 1015 l 28 1015 z "},"+":{"ha":917,"x_min":0,"x_max":0,"o":"m 111 539 l 111 397 l 388 397 l 388 119 l 529 119 l 529 397 l 806 397 l 806 539 l 529 539 l 529 815 l 388 815 l 388 539 z "},"−":{"ha":917,"x_min":0,"x_max":0,"o":"m 111 539 l 111 397 l 806 397 l 806 539 z "},"×":{"ha":917,"x_min":0,"x_max":0,"o":"m 232 796 l 131 696 l 358 468 l 129 239 l 231 139 l 460 368 l 686 140 l 788 240 l 560 468 l 788 696 l 686 796 l 460 569 z "},"÷":{"ha":917,"x_min":0,"x_max":0,"o":"m 460 585 b 563 686 514 585 563 632 b 460 789 563 743 514 789 b 354 686 403 789 354 743 b 460 585 354 632 403 585 z m 111 494 l 111 351 l 806 351 l 806 494 z m 460 56 b 563 158 514 56 563 103 b 460 260 563 214 514 260 b 354 158 403 260 354 214 b 460 56 354 103 403 56 z "},"=":{"ha":917,"x_min":0,"x_max":0,"o":"m 111 639 l 111 496 l 806 496 l 806 639 z m 111 340 l 111 197 l 806 197 l 806 340 z "},"≠":{"ha":917,"x_min":0,"x_max":0,"o":"m 165 25 l 325 25 l 418 197 l 806 197 l 806 340 l 497 340 l 581 496 l 806 496 l 806 639 l 660 639 l 753 811 l 592 811 l 499 639 l 111 639 l 111 496 l 421 496 l 336 340 l 111 340 l 111 197 l 258 197 z "},">":{"ha":917,"x_min":0,"x_max":0,"o":"m 806 257 l 806 436 l 111 679 l 111 514 l 639 346 l 111 178 l 111 13 z "},"<":{"ha":917,"x_min":0,"x_max":0,"o":"m 806 178 l 278 346 l 806 514 l 806 679 l 111 436 l 111 257 l 806 13 z "},"≥":{"ha":917,"x_min":0,"x_max":0,"o":"m 806 404 l 806 583 l 111 818 l 111 653 l 639 494 l 111 336 l 111 171 z m 111 143 l 111 0 l 806 0 l 806 143 z "},"≤":{"ha":917,"x_min":0,"x_max":0,"o":"m 806 336 l 278 494 l 806 653 l 806 818 l 111 583 l 111 404 l 806 171 z m 111 0 l 806 0 l 806 143 l 111 143 z "},"±":{"ha":917,"x_min":0,"x_max":0,"o":"m 111 619 l 111 478 l 388 478 l 388 251 l 529 251 l 529 478 l 806 478 l 806 619 l 529 619 l 529 844 l 388 844 l 388 619 z m 111 0 l 806 0 l 806 143 l 111 143 z "},"≈":{"ha":917,"x_min":0,"x_max":0,"o":"m 675 679 b 600 578 674 617 656 578 b 304 686 511 578 431 686 b 111 453 186 686 111 585 l 242 453 b 317 549 243 510 261 549 b 613 440 400 549 481 440 b 806 679 731 440 806 542 z m 675 403 b 600 300 674 339 656 300 b 304 408 511 300 431 408 b 111 175 186 408 111 308 l 242 175 b 317 272 243 232 261 272 b 613 163 400 272 481 163 b 806 403 731 163 806 265 z "},"~":{"ha":917,"x_min":0,"x_max":0,"o":"m 675 544 b 600 443 674 482 656 443 b 304 551 511 443 431 551 b 111 318 186 551 111 450 l 242 318 b 317 414 243 375 261 414 b 613 306 400 414 481 306 b 806 544 731 306 806 407 z "},"¬":{"ha":917,"x_min":0,"x_max":0,"o":"m 788 524 l 86 524 l 86 379 l 626 379 l 626 124 l 788 124 z "},"∅":{"ha":1172,"x_min":0,"x_max":0,"o":"m 582 -17 b 1078 508 861 -17 1078 210 b 997 806 1078 621 1049 722 l 1124 921 l 1046 1007 l 924 896 b 582 1033 836 982 717 1033 b 88 508 300 1033 88 810 b 169 211 88 397 118 294 l 49 101 l 128 15 l 243 121 b 582 -17 331 35 449 -17 z m 254 508 b 582 875 254 725 390 875 b 804 788 671 875 749 843 l 293 324 b 254 508 268 376 254 439 z m 582 142 b 361 228 494 142 418 174 l 872 693 b 911 508 897 640 911 578 b 582 142 911 294 775 142 z "},"∞":{"ha":1249,"x_min":0,"x_max":0,"o":"m 64 399 b 346 118 64 236 183 118 b 625 283 464 118 542 168 b 901 118 707 168 785 118 b 1185 399 1067 118 1185 236 b 901 682 1185 563 1067 682 b 625 515 786 682 707 632 b 346 682 542 632 463 682 b 64 399 182 682 64 563 z m 218 399 b 349 533 218 481 269 533 b 524 399 425 533 485 489 b 349 265 485 311 424 265 b 218 399 269 265 218 319 z m 724 399 b 900 533 763 489 824 533 b 1031 399 979 533 1031 479 b 900 265 1031 319 978 265 b 724 399 825 265 763 311 z "},"∫":{"ha":617,"x_min":0,"x_max":0,"o":"m 158 -18 b 393 229 296 -18 393 81 l 393 789 b 471 881 393 853 421 881 l 575 881 l 575 1033 l 458 1033 b 222 788 319 1033 222 936 l 222 228 b 146 136 222 163 194 136 l 42 136 l 42 -18 z "},"∆":{"ha":972,"x_min":0,"x_max":0,"o":"m 907 0 l 907 149 l 569 1015 l 401 1015 l 65 150 l 65 0 z m 467 736 b 485 789 469 740 481 771 b 503 736 489 774 496 754 l 731 149 l 243 149 z "},"∏":{"ha":979,"x_min":0,"x_max":0,"o":"m 290 0 l 290 851 l 689 851 l 689 0 l 867 0 l 867 1015 l 113 1015 l 113 0 z "},"∑":{"ha":796,"x_min":0,"x_max":0,"o":"m 731 0 l 731 164 l 258 164 l 563 511 l 261 851 l 731 851 l 731 1015 l 57 1015 l 57 838 l 351 511 l 57 179 l 57 0 z "},"√":{"ha":1017,"x_min":0,"x_max":0,"o":"m 274 0 l 438 0 l 772 863 l 981 863 l 981 1017 l 657 1017 l 356 218 l 176 685 l 0 685 z "},"µ":{"ha":810,"x_min":0,"x_max":0,"o":"m 250 -318 l 231 50 b 365 -18 258 11 303 -18 b 553 92 454 -18 511 26 l 565 0 l 722 0 l 722 686 l 553 686 l 553 326 b 394 133 553 196 501 133 b 249 317 300 133 249 186 l 249 686 l 79 686 l 79 -318 z "},"∂":{"ha":896,"x_min":0,"x_max":0,"o":"m 69 354 b 439 -18 69 119 239 -18 b 826 415 644 -18 826 122 b 551 1021 826 621 744 832 l 335 1021 b 618 657 486 893 571 774 b 426 725 567 704 492 725 b 69 354 233 725 69 582 z m 240 353 b 449 574 240 481 326 574 b 654 356 568 574 654 482 b 447 133 654 225 567 133 b 240 353 326 133 240 225 z "},"%":{"ha":1332,"x_min":0,"x_max":0,"o":"m 578 768 b 313 1035 578 924 467 1035 b 47 768 158 1035 47 924 b 313 501 47 611 158 501 b 578 768 467 501 578 611 z m 1135 1014 l 965 1014 l 194 0 l 364 0 z m 443 768 b 313 632 443 688 390 632 b 183 768 236 632 183 688 b 313 904 183 849 235 904 b 443 768 390 904 443 849 z m 1283 249 b 1019 515 1283 404 1174 515 b 754 249 864 515 754 404 b 1019 -18 754 93 864 -18 b 1283 249 1174 -18 1283 93 z m 1149 249 b 1019 113 1149 168 1096 113 b 889 249 942 113 889 168 b 1019 385 889 329 942 385 b 1149 249 1096 385 1149 329 z "},"‰":{"ha":1914,"x_min":0,"x_max":0,"o":"m 578 768 b 313 1035 578 924 467 1035 b 47 768 158 1035 47 924 b 313 501 47 611 158 501 b 578 768 467 501 578 611 z m 1135 1014 l 965 1014 l 194 0 l 364 0 z m 443 768 b 313 632 443 688 390 632 b 183 768 236 632 183 688 b 313 904 183 849 235 904 b 443 768 390 904 443 849 z m 1283 249 b 1019 515 1283 404 1174 515 b 754 249 864 515 754 404 b 1019 -18 754 93 864 -18 b 1283 249 1174 -18 1283 93 z m 1865 249 b 1601 515 1865 404 1756 515 b 1336 249 1446 515 1336 404 b 1601 -18 1336 93 1446 -18 b 1865 249 1756 -18 1865 93 z m 1149 249 b 1019 113 1149 168 1096 113 b 889 249 942 113 889 168 b 1019 385 889 329 942 385 b 1149 249 1096 385 1149 329 z m 1731 249 b 1601 113 1731 168 1678 113 b 1471 249 1524 113 1471 168 b 1601 385 1471 329 1524 385 b 1731 249 1678 385 1731 329 z "},"↑":{"ha":1149,"x_min":0,"x_max":0,"o":"m 175 563 l 510 893 l 510 0 l 639 0 l 639 893 l 974 563 l 1065 654 l 574 1142 l 83 654 z "},"↗":{"ha":1183,"x_min":0,"x_max":0,"o":"m 408 886 l 878 886 l 83 90 l 175 0 l 969 794 l 969 325 l 1100 325 l 1100 1015 l 408 1015 z "},"→":{"ha":1353,"x_min":0,"x_max":0,"o":"m 688 819 l 1019 488 l 83 486 l 83 358 l 1019 358 l 688 25 l 779 -67 l 1269 422 l 779 911 z "},"↘":{"ha":1181,"x_min":0,"x_max":0,"o":"m 968 693 l 967 224 l 174 1015 l 83 925 l 875 132 l 406 132 l 406 1 l 1097 1 l 1097 693 z "},"↓":{"ha":1143,"x_min":0,"x_max":0,"o":"m 971 419 l 636 88 l 636 1042 l 507 1042 l 507 88 l 176 419 l 83 328 l 571 -161 l 1060 328 z "},"↙":{"ha":1185,"x_min":0,"x_max":0,"o":"m 776 129 l 306 129 l 1101 926 l 1010 1017 l 215 221 l 215 690 l 85 690 l 83 0 l 775 0 z "},"←":{"ha":1353,"x_min":0,"x_max":0,"o":"m 665 -1 l 333 331 l 1269 331 l 1269 460 l 333 460 l 665 793 l 574 883 l 83 393 l 574 -94 z "},"↖":{"ha":1158,"x_min":0,"x_max":0,"o":"m 83 1015 l 83 324 l 213 322 l 213 793 l 983 0 l 1075 90 l 304 883 l 774 885 l 774 1014 z "},"↔":{"ha":1567,"x_min":0,"x_max":0,"o":"m 83 381 l 465 -4 l 465 181 l 326 314 l 1239 314 l 1103 182 l 1103 -3 l 1483 381 l 1103 760 l 1103 575 l 1240 443 l 928 444 l 928 446 l 650 446 l 650 444 l 329 443 l 465 574 l 465 760 z "},"↕":{"ha":931,"x_min":0,"x_max":0,"o":"m 463 -253 l 847 129 l 661 129 l 529 -10 l 529 904 l 661 767 l 847 767 l 463 1147 l 83 767 l 268 767 l 400 903 l 399 590 l 397 590 l 397 315 l 399 315 l 400 -8 l 268 129 l 83 129 z "},"●":{"ha":1244,"x_min":0,"x_max":0,"o":"m 622 -76 b 1161 463 919 -76 1161 165 b 622 1001 1161 760 918 1001 b 83 463 326 1001 83 760 b 622 -76 83 165 325 -76 z "},"○":{"ha":1244,"x_min":0,"x_max":0,"o":"m 622 -76 b 1161 463 919 -76 1161 165 b 622 1001 1161 760 918 1001 b 83 463 326 1001 83 760 b 622 -76 83 165 325 -76 z m 622 43 b 203 463 392 43 203 232 b 622 882 203 693 392 882 b 1042 463 853 882 1042 692 b 622 43 1042 232 854 43 z "},"◊":{"ha":890,"x_min":0,"x_max":0,"o":"m 807 493 l 526 986 l 364 986 l 83 493 l 364 0 l 526 0 z m 635 493 l 446 149 l 256 493 l 446 839 z "},"■":{"ha":1153,"x_min":0,"x_max":0,"o":"m 83 0 l 1069 0 l 1069 986 l 83 986 z "},"□":{"ha":1153,"x_min":0,"x_max":0,"o":"m 83 0 l 1069 0 l 1069 986 l 83 986 z m 942 858 l 942 128 l 211 128 l 211 858 z "},"▲":{"ha":1342,"x_min":0,"x_max":0,"o":"m 83 0 l 1258 0 l 671 986 z "},"△":{"ha":1343,"x_min":0,"x_max":0,"o":"m 672 990 l 83 4 l 1260 4 z m 288 117 l 671 758 l 1054 117 z "},"☮":{"ha":1244,"x_min":0,"x_max":0,"o":"m 622 -76 b 1161 463 919 -76 1161 165 b 622 1001 1161 760 918 1001 b 83 463 326 1001 83 760 b 622 -76 83 165 325 -76 z m 203 463 b 569 879 203 675 364 853 l 569 524 l 238 297 b 203 463 215 347 203 404 z m 1042 463 b 1008 297 1042 404 1029 349 l 678 524 l 678 878 b 1042 463 882 850 1042 674 z m 293 204 l 569 392 l 569 46 b 293 204 458 61 360 119 z m 678 392 l 953 204 b 678 47 886 119 789 61 z "},"✓":{"ha":981,"x_min":0,"x_max":0,"o":"m 351 10 l 888 653 l 778 746 l 346 226 l 149 438 l 51 333 z "},"@":{"ha":1311,"x_min":0,"x_max":0,"o":"m 364 313 b 589 118 364 192 449 118 b 807 236 689 118 779 167 b 983 118 826 160 888 118 b 1246 472 1143 118 1246 258 b 661 1033 1246 797 1000 1033 b 65 439 321 1033 65 779 b 661 -157 65 97 319 -157 b 999 -51 785 -157 901 -121 l 950 43 b 661 -53 863 -18 761 -53 b 178 439 383 -53 178 157 b 661 929 178 719 383 929 b 1133 472 938 929 1133 739 b 1006 221 1133 322 1082 221 b 935 299 958 221 935 246 l 935 514 b 663 778 935 682 836 778 b 382 554 492 778 382 689 l 513 554 b 656 658 513 621 564 658 b 785 539 740 658 785 618 l 785 525 l 597 510 b 364 313 444 499 364 424 z m 521 318 b 654 408 521 372 560 400 l 786 419 l 786 386 b 629 235 786 292 726 235 b 521 318 557 235 521 263 z "},"&":{"ha":1022,"x_min":0,"x_max":0,"o":"m 807 0 l 1004 0 l 839 186 b 918 486 890 267 918 368 l 753 486 b 725 313 753 419 743 361 l 521 542 b 701 808 647 626 701 707 b 450 1032 701 940 599 1032 b 190 800 300 1032 190 935 b 300 569 190 724 221 661 b 64 269 144 494 64 393 b 433 -18 64 99 213 -18 b 739 76 556 -18 658 15 z m 351 801 b 450 897 351 861 389 897 b 544 803 508 897 544 863 b 439 635 544 733 510 676 b 351 801 374 710 351 751 z m 243 286 b 382 478 243 365 286 424 l 640 188 b 453 128 592 149 529 128 b 243 286 322 128 243 188 z "},"¶":{"ha":838,"x_min":0,"x_max":0,"o":"m 38 736 b 303 454 38 560 144 454 l 361 454 l 361 -119 l 507 -119 l 507 1015 l 303 1015 b 38 736 146 1015 38 908 z m 697 -122 l 697 1014 l 633 1014 l 633 -122 z "},"§":{"ha":671,"x_min":0,"x_max":0,"o":"m 626 522 b 453 714 626 619 576 685 l 321 746 b 231 826 263 758 231 786 b 338 908 231 878 269 908 b 443 811 403 908 442 871 l 604 811 b 344 1035 603 946 499 1035 b 72 829 186 1035 72 949 b 169 676 72 758 101 708 b 44 493 94 640 44 572 b 218 303 44 397 94 331 l 351 272 b 442 190 408 260 442 231 b 335 110 442 140 403 110 b 228 206 268 110 229 147 l 68 206 b 328 -17 68 71 174 -17 b 599 188 485 -17 599 68 b 501 342 599 258 569 308 b 626 522 576 375 626 443 z m 468 508 b 336 401 468 446 424 401 b 203 508 247 401 203 446 b 336 617 203 571 247 617 b 468 508 424 617 468 571 z "},"©":{"ha":1140,"x_min":0,"x_max":0,"o":"m 571 -18 b 1085 508 858 -18 1085 214 b 571 1033 1085 803 858 1033 b 56 508 282 1033 56 803 b 571 -18 56 214 282 -18 z m 571 85 b 164 508 340 85 164 268 b 571 931 164 747 340 931 b 975 508 800 931 975 749 b 571 85 975 268 800 85 z m 310 507 b 574 233 310 343 415 233 b 825 436 708 233 810 315 l 696 436 b 574 350 681 379 639 350 b 439 508 493 350 439 411 b 578 667 439 603 496 667 b 694 579 640 667 679 638 l 825 579 b 574 782 810 704 713 782 b 310 507 419 782 310 668 z "},"®":{"ha":703,"x_min":0,"x_max":0,"o":"m 353 444 b 647 739 521 444 647 571 b 353 1033 647 907 521 1033 b 56 739 185 1033 56 906 b 353 444 56 572 183 444 z m 353 497 b 113 739 214 497 113 600 b 353 981 113 878 214 981 b 592 739 490 981 592 878 b 353 497 592 600 490 497 z m 290 578 l 290 697 l 369 697 l 432 578 l 494 578 l 422 711 b 489 808 465 728 489 765 b 367 910 489 872 440 910 l 233 910 l 233 578 z m 429 804 b 365 749 429 769 406 749 l 290 749 l 290 856 l 365 856 b 429 804 407 856 429 839 z "},"℗":{"ha":703,"x_min":0,"x_max":0,"o":"m 353 444 b 647 739 521 444 647 571 b 353 1033 647 907 521 1033 b 56 739 185 1033 56 906 b 353 444 56 572 183 444 z m 353 497 b 113 739 214 497 113 600 b 353 981 113 878 214 981 b 592 739 490 981 592 878 b 353 497 592 600 490 497 z m 306 571 l 306 668 l 379 668 b 506 789 457 668 506 715 b 379 901 506 857 454 901 l 249 901 l 249 571 z m 306 847 l 379 847 b 444 786 421 847 444 828 b 379 722 444 744 421 722 l 306 722 z "},"™":{"ha":903,"x_min":0,"x_max":0,"o":"m 167 950 l 167 622 l 236 622 l 236 950 l 367 950 l 367 1015 l 36 1015 l 36 950 z m 479 622 l 479 872 l 588 622 l 646 622 l 754 876 l 754 622 l 819 622 l 819 1015 l 754 1015 l 617 692 l 479 1015 l 414 1015 l 414 622 z "},"°":{"ha":433,"x_min":0,"x_max":0,"o":"m 400 850 b 217 1033 400 956 322 1033 b 33 850 111 1033 33 956 b 217 667 33 746 111 667 b 400 850 322 667 400 746 z m 304 850 b 217 760 304 796 268 760 b 129 850 164 760 129 797 b 217 942 129 904 164 942 b 304 850 268 942 304 906 z "},"|":{"ha":467,"x_min":0,"x_max":0,"o":"m 168 -122 l 300 -122 l 300 1097 l 168 1097 z "},"¦":{"ha":467,"x_min":0,"x_max":0,"o":"m 300 1097 l 168 1097 l 168 611 l 300 611 z m 168 -122 l 300 -122 l 300 364 l 168 364 z "},"†":{"ha":464,"x_min":0,"x_max":0,"o":"m 179 396 l 283 396 l 283 776 l 433 776 l 433 876 l 283 876 l 283 1015 l 179 1015 l 179 876 l 31 876 l 31 776 l 179 776 z "},"‡":{"ha":467,"x_min":0,"x_max":0,"o":"m 179 396 l 283 396 l 283 547 l 436 547 l 436 647 l 283 647 l 283 764 l 433 764 l 433 864 l 283 864 l 283 1015 l 179 1015 l 179 864 l 31 864 l 31 764 l 179 764 l 179 647 l 33 647 l 33 547 l 179 547 z "},"℮":{"ha":1082,"x_min":0,"x_max":0,"o":"m 83 490 b 556 -12 83 192 272 -12 b 942 208 729 -12 874 72 l 889 228 b 558 43 831 118 701 43 b 222 206 411 43 294 103 l 222 456 l 997 456 b 999 529 999 476 999 503 b 542 986 999 815 810 986 b 83 490 275 986 83 783 z m 222 758 b 542 931 290 861 403 931 b 860 783 674 931 790 878 l 860 506 l 222 506 z "},"№":{"ha":1783,"x_min":0,"x_max":0,"o":"m 1719 707 b 1383 1035 1719 894 1575 1035 b 1044 707 1190 1035 1044 893 b 1383 381 1044 525 1193 381 b 1719 707 1575 381 1719 519 z m 288 0 l 288 719 l 765 0 l 940 0 l 940 1015 l 765 1015 l 765 296 l 289 1015 l 113 1015 l 113 0 z m 1561 706 b 1383 529 1561 604 1485 529 b 1203 706 1282 529 1203 607 b 1383 883 1203 811 1276 883 b 1561 706 1489 883 1561 811 z m 1688 161 l 1688 307 l 1076 307 l 1076 161 z "},"^":{"ha":718,"x_min":0,"x_max":0,"o":"m 238 556 l 358 875 l 481 556 l 626 556 l 442 1015 l 276 1015 l 92 556 z "},"′":{"ha":263,"x_min":0,"x_max":0,"o":"m 200 947 b 131 1035 207 1007 168 1035 b 60 947 92 1035 53 1007 l 90 683 l 171 683 z "},"̈":{"ha":586,"x_min":0,"x_max":0,"o":"m 169 1085 b 263 1178 219 1085 263 1126 b 169 1271 263 1228 219 1271 b 78 1178 119 1271 78 1228 b 169 1085 78 1126 118 1085 z m 417 1085 b 510 1178 467 1085 510 1126 b 417 1271 510 1228 467 1271 b 325 1178 367 1271 325 1228 b 417 1085 325 1126 365 1085 z "},"̇":{"ha":314,"x_min":0,"x_max":0,"o":"m 157 1085 b 254 1182 210 1085 254 1129 b 157 1279 254 1233 210 1279 b 60 1182 104 1279 60 1235 b 157 1085 60 1128 103 1085 z "},"̀":{"ha":383,"x_min":0,"x_max":0,"o":"m 326 1068 l 222 1275 l 65 1275 l 200 1068 z "},"́":{"ha":385,"x_min":0,"x_max":0,"o":"m 319 1274 l 163 1274 l 58 1068 l 183 1068 z "},"̋":{"ha":610,"x_min":0,"x_max":0,"o":"m 311 1274 l 169 1274 l 57 1068 l 176 1068 z m 525 1274 l 382 1274 l 263 1068 l 383 1068 z "},"̂":{"ha":536,"x_min":0,"x_max":0,"o":"m 189 1068 l 268 1206 l 347 1068 l 481 1068 l 354 1285 l 181 1285 l 56 1068 z "},"̌":{"ha":536,"x_min":0,"x_max":0,"o":"m 181 1068 l 354 1068 l 481 1285 l 347 1285 l 268 1147 l 189 1285 l 56 1285 z "},"̆":{"ha":585,"x_min":0,"x_max":0,"o":"m 386 1276 b 293 1172 386 1211 353 1172 b 199 1276 232 1172 199 1210 l 75 1276 b 293 1057 75 1142 158 1057 b 510 1276 425 1057 510 1142 z "},"̊":{"ha":463,"x_min":0,"x_max":0,"o":"m 231 1051 b 410 1228 333 1051 410 1128 b 231 1406 410 1328 332 1406 b 53 1228 131 1406 53 1329 b 231 1051 53 1125 128 1051 z m 231 1143 b 150 1231 182 1143 150 1178 b 231 1314 150 1281 183 1314 b 313 1231 279 1314 313 1279 b 231 1143 313 1178 281 1143 z "},"̃":{"ha":597,"x_min":0,"x_max":0,"o":"m 163 1079 b 210 1161 163 1131 176 1161 b 404 1079 260 1161 308 1079 b 536 1275 493 1079 547 1143 l 436 1275 b 388 1193 436 1225 422 1193 b 190 1275 329 1193 282 1275 b 63 1079 103 1275 50 1199 z "},"̄":{"ha":539,"x_min":0,"x_max":0,"o":"m 83 1119 l 456 1119 l 456 1238 l 83 1238 z "},"̒":{"ha":294,"x_min":0,"x_max":0,"o":"m 238 1167 b 161 1244 238 1210 207 1244 b 131 1238 150 1244 139 1243 b 225 1290 133 1278 164 1296 l 225 1347 b 57 1190 119 1358 57 1289 b 150 1082 57 1124 94 1082 b 238 1167 201 1082 238 1117 z "},"̦":{"ha":294,"x_min":0,"x_max":0,"o":"m 236 -144 b 143 -35 236 -78 199 -35 b 56 -119 92 -35 56 -69 b 132 -197 56 -164 88 -197 b 163 -190 143 -197 154 -196 b 68 -243 160 -231 129 -250 l 68 -300 b 236 -144 174 -312 236 -242 z "},"̧":{"ha":360,"x_min":0,"x_max":0,"o":"m 46 -272 b 149 -296 74 -287 104 -296 b 304 -165 235 -296 304 -251 b 193 -57 304 -89 247 -57 b 147 -64 176 -57 161 -60 l 185 8 l 185 51 l 133 53 l 67 -85 l 85 -132 b 153 -119 107 -124 125 -119 b 211 -167 189 -119 211 -136 b 139 -219 211 -199 186 -219 b 46 -194 104 -219 78 -210 z "},"̸":{"ha":767,"x_min":0,"x_max":0,"o":"m 711 757 l 564 757 l 56 -60 l 208 -60 z "},"´":{"ha":385,"x_min":0,"x_max":0,"o":"m 319 1274 l 163 1274 l 58 1068 l 183 1068 z "},"˘":{"ha":585,"x_min":0,"x_max":0,"o":"m 386 1276 b 293 1172 386 1211 353 1172 b 199 1276 232 1172 199 1210 l 75 1276 b 293 1057 75 1142 158 1057 b 510 1276 425 1057 510 1142 z "},"ˇ":{"ha":536,"x_min":0,"x_max":0,"o":"m 181 1068 l 354 1068 l 481 1285 l 347 1285 l 268 1147 l 189 1285 l 56 1285 z "},"¸":{"ha":360,"x_min":0,"x_max":0,"o":"m 46 -272 b 149 -296 74 -287 104 -296 b 304 -165 235 -296 304 -251 b 193 -57 304 -89 247 -57 b 147 -64 176 -57 161 -60 l 185 8 l 185 51 l 133 53 l 67 -85 l 85 -132 b 153 -119 107 -124 125 -119 b 211 -167 189 -119 211 -136 b 139 -219 211 -199 186 -219 b 46 -194 104 -219 78 -210 z "},"ˆ":{"ha":536,"x_min":0,"x_max":0,"o":"m 189 1068 l 268 1206 l 347 1068 l 481 1068 l 354 1285 l 181 1285 l 56 1068 z "},"¨":{"ha":586,"x_min":0,"x_max":0,"o":"m 169 1085 b 263 1178 219 1085 263 1126 b 169 1271 263 1228 219 1271 b 78 1178 119 1271 78 1228 b 169 1085 78 1126 118 1085 z m 417 1085 b 510 1178 467 1085 510 1126 b 417 1271 510 1228 467 1271 b 325 1178 367 1271 325 1228 b 417 1085 325 1126 365 1085 z "},"˙":{"ha":314,"x_min":0,"x_max":0,"o":"m 157 1085 b 254 1182 210 1085 254 1129 b 157 1279 254 1233 210 1279 b 60 1182 104 1279 60 1235 b 157 1085 60 1128 103 1085 z "},"`":{"ha":383,"x_min":0,"x_max":0,"o":"m 326 1068 l 222 1275 l 65 1275 l 200 1068 z "},"˝":{"ha":610,"x_min":0,"x_max":0,"o":"m 311 1274 l 169 1274 l 57 1068 l 176 1068 z m 525 1274 l 382 1274 l 263 1068 l 383 1068 z "},"¯":{"ha":539,"x_min":0,"x_max":0,"o":"m 83 1119 l 456 1119 l 456 1238 l 83 1238 z "},"˛":{"ha":325,"x_min":0,"x_max":0,"o":"m 171 0 b 61 -143 96 -29 61 -86 b 199 -272 61 -214 114 -272 b 268 -260 224 -272 247 -269 l 268 -147 b 231 -156 254 -153 242 -156 b 176 -104 197 -156 176 -135 b 275 0 176 -68 206 -25 z "},"˚":{"ha":463,"x_min":0,"x_max":0,"o":"m 231 1051 b 410 1228 333 1051 410 1128 b 231 1406 410 1328 332 1406 b 53 1228 131 1406 53 1329 b 231 1051 53 1125 128 1051 z m 231 1143 b 150 1231 182 1143 150 1178 b 231 1314 150 1281 183 1314 b 313 1231 279 1314 313 1279 b 231 1143 313 1178 281 1143 z "},"˜":{"ha":597,"x_min":0,"x_max":0,"o":"m 163 1079 b 210 1161 163 1131 176 1161 b 404 1079 260 1161 308 1079 b 536 1275 493 1079 547 1143 l 436 1275 b 388 1193 436 1225 422 1193 b 190 1275 329 1193 282 1275 b 63 1079 103 1275 50 1199 z "},"":{"ha":2415,"x_min":0,"x_max":0,"o":"m 104 0 l 404 0 l 404 972 l 104 972 z m 467 689 l 767 689 l 767 972 l 467 972 z m 828 0 l 1129 0 l 1129 972 l 828 972 z m 1190 689 l 1490 689 l 1490 972 l 1190 972 z m 1551 0 l 1853 0 l 1853 972 l 1551 972 z m 1914 689 l 2214 689 l 2214 972 l 1914 972 z m 1914 343 l 2214 343 l 2214 628 l 1914 628 z "},"ı":{"ha":344,"x_min":0,"x_max":0,"o":"m 88 0 l 257 0 l 257 686 l 88 686 z "},"ȷ":{"ha":344,"x_min":0,"x_max":0,"o":"m -76 -322 b 25 -337 -32 -335 -7 -337 b 257 -97 174 -337 257 -243 l 257 686 l 88 686 l 88 -78 b 10 -181 88 -147 68 -181 b -49 -172 -11 -181 -25 -179 z "},"̵":{"ha":808,"x_min":0,"x_max":0,"o":"m 39 894 l 39 792 l 514 792 l 514 894 z "},"̷":{"ha":371,"x_min":0,"x_max":0,"o":"m 28 419 l 349 572 l 349 694 l 28 542 z "}}}
